<svg xmlns="http://www.w3.org/2000/svg" xmlns:xlink="http://www.w3.org/1999/xlink" width="132.195" height="132.195" viewBox="0 0 132.195 132.195"><defs><linearGradient id="a" x1="0.5" x2="0.5" y2="1" gradientUnits="objectBoundingBox"><stop offset="0" stop-color="#efefef" stop-opacity="0.6"/><stop offset="1" stop-color="#efefef" stop-opacity="0.102"/></linearGradient><filter id="b" x="81.791" y="55.388" width="36.896" height="36.868" filterUnits="userSpaceOnUse"><feOffset input="SourceAlpha"/><feGaussianBlur stdDeviation="5" result="c"/><feFlood flood-color="#ffe8b9"/><feComposite operator="in" in2="c"/><feComposite in="SourceGraphic"/></filter><filter id="d" x="71.228" y="59.274" width="36.919" height="36.918" filterUnits="userSpaceOnUse"><feOffset input="SourceAlpha"/><feGaussianBlur stdDeviation="5" result="e"/><feFlood flood-color="#ffe8b9"/><feComposite operator="in" in2="e"/><feComposite in="SourceGraphic"/></filter><filter id="f" x="42.58" y="23.763" width="55.126" height="71.689" filterUnits="userSpaceOnUse"><feOffset input="SourceAlpha"/><feGaussianBlur stdDeviation="5" result="g"/><feFlood flood-color="#ffe8b9"/><feComposite operator="in" in2="g"/><feComposite in="SourceGraphic"/></filter><filter id="h" x="33.617" y="42.545" width="45.79" height="42.693" filterUnits="userSpaceOnUse"><feOffset input="SourceAlpha"/><feGaussianBlur stdDeviation="5" result="i"/><feFlood flood-color="#ffe8b9"/><feComposite operator="in" in2="i"/><feComposite in="SourceGraphic"/></filter><filter id="j" x="51.94" y="14.332" width="39.372" height="39.37" filterUnits="userSpaceOnUse"><feOffset input="SourceAlpha"/><feGaussianBlur stdDeviation="5" result="k"/><feFlood flood-color="#ffe8b9"/><feComposite operator="in" in2="k"/><feComposite in="SourceGraphic"/></filter><filter id="l" x="36.63" y="41.35" width="43.085" height="38.06" filterUnits="userSpaceOnUse"><feOffset input="SourceAlpha"/><feGaussianBlur stdDeviation="5" result="m"/><feFlood flood-color="#ffe8b9"/><feComposite operator="in" in2="m"/><feComposite in="SourceGraphic"/></filter><filter id="n" x="28.976" y="74.833" width="36.914" height="36.918" filterUnits="userSpaceOnUse"><feOffset input="SourceAlpha"/><feGaussianBlur stdDeviation="5" result="o"/><feFlood flood-color="#ffe8b9"/><feComposite operator="in" in2="o"/><feComposite in="SourceGraphic"/></filter><filter id="p" x="39.492" y="70.922" width="36.918" height="36.916" filterUnits="userSpaceOnUse"><feOffset input="SourceAlpha"/><feGaussianBlur stdDeviation="5" result="q"/><feFlood flood-color="#ffe8b9"/><feComposite operator="in" in2="q"/><feComposite in="SourceGraphic"/></filter><filter id="r" x="60.773" y="63.051" width="36.918" height="36.916" filterUnits="userSpaceOnUse"><feOffset input="SourceAlpha"/><feGaussianBlur stdDeviation="5" result="s"/><feFlood flood-color="#ffe8b9"/><feComposite operator="in" in2="s"/><feComposite in="SourceGraphic"/></filter><filter id="t" x="50.011" y="67.009" width="36.916" height="36.911" filterUnits="userSpaceOnUse"><feOffset input="SourceAlpha"/><feGaussianBlur stdDeviation="5" result="u"/><feFlood flood-color="#ffe8b9"/><feComposite operator="in" in2="u"/><feComposite in="SourceGraphic"/></filter></defs><circle cx="46.738" cy="46.738" r="46.738" transform="translate(0 66.097) rotate(-45)" fill="url(#a)"/><path d="M46.738,2A44.75,44.75,0,0,0,29.325,87.961,44.75,44.75,0,0,0,64.151,5.515,44.456,44.456,0,0,0,46.738,2m0-2A46.738,46.738,0,1,1,0,46.738,46.738,46.738,0,0,1,46.738,0Z" transform="translate(0 66.097) rotate(-45)" fill="rgba(255,248,234,0.5)"/><g transform="translate(43.976 29.332)"><g transform="matrix(1, 0, 0, 1, -43.98, -29.33)" filter="url(#b)"><path d="M869.52-370.784a3.371,3.371,0,0,1,3.43,3.435,3.373,3.373,0,0,1-3.438,3.433,3.385,3.385,0,0,1-3.458-3.415A3.357,3.357,0,0,1,869.52-370.784Zm2.43,3.412a2.472,2.472,0,0,0-2.486-2.467,2.44,2.44,0,0,0-2.389,2.5,2.379,2.379,0,0,0,2.474,2.441A2.414,2.414,0,0,0,871.95-367.372Z" transform="translate(-769.26 441.17)" fill="#fff"/></g><g transform="matrix(1, 0, 0, 1, -43.98, -29.33)" filter="url(#d)"><path d="M859.58-364.978a3.389,3.389,0,0,1,3.514-3.425,3.443,3.443,0,0,1,3.406,3.434,3.493,3.493,0,0,1-3.5,3.484A3.468,3.468,0,0,1,859.58-364.978Zm3.4,2.459a2.4,2.4,0,0,0,2.489-2.372,2.491,2.491,0,0,0-2.4-2.562,2.515,2.515,0,0,0-2.505,2.472A2.428,2.428,0,0,0,862.982-362.519Z" transform="translate(-773.35 442.68)" fill="#fff"/></g><g transform="matrix(1, 0, 0, 1, -43.98, -29.33)" filter="url(#f)"><path d="M850.059-381.234a6.065,6.065,0,0,0-1.946,2.7q-.828,2.427-1.692,4.843a2.12,2.12,0,0,1-2.934,1.354,2.1,2.1,0,0,1-1.237-2.794c.645-1.888,1.3-3.77,1.956-5.656a7.518,7.518,0,0,1,1.906-2.952c1.815-1.759,3.514-3.629,5.221-5.488a2.785,2.785,0,0,1,2.876-.876,21.383,21.383,0,0,1,2.284.669,2.98,2.98,0,0,1,1.884,1.865,18.2,18.2,0,0,1,.892,4.477,5.131,5.131,0,0,1,.091,1.031c-.069.71.343.835.91.9,1.7.184,3.4.376,5.089.6a2.093,2.093,0,0,1,1.858,2.477,2.028,2.028,0,0,1-2.28,1.874c-1.641-.14-3.277-.34-4.914-.536-.32-.038-.5-.02-.514.366q-.04,1.619-.117,3.235a.63.63,0,0,0,.457.688c1.779.757,3.545,1.547,5.328,2.295a2.353,2.353,0,0,1,1.675,2.421c.039,1.794-.13,3.58-.258,5.365-.162,2.292-.427,4.578-.552,6.872a2.578,2.578,0,0,1-2.97,2.228c-1.81-.2-2.6-1.3-2.433-3.1.21-2.329.354-4.664.527-7,.043-.588.092-1.176.112-1.764a.955.955,0,0,0-.586-.986c-1.534-.657-3.069-1.314-4.613-1.947-.682-.279-.733-.245-.61.493a20.854,20.854,0,0,1-.857,8.913c-.706,2.655-1.306,5.337-1.95,8.008a2.532,2.532,0,0,1-3.5,1.976,2.432,2.432,0,0,1-1.794-3.161c.841-3.5,1.69-7,2.519-10.509a12.438,12.438,0,0,0-.031-4.674,52.178,52.178,0,0,1-.615-6.742,36.942,36.942,0,0,1,.618-5.819C849.927-380.076,849.978-380.573,850.059-381.234Z" transform="translate(-784.53 428.96)" fill="#fff"/></g><g transform="matrix(1, 0, 0, 1, -43.98, -29.33)" filter="url(#h)"><path d="M836.514-371.437a3.655,3.655,0,0,1,.117-.4q1.212-3.2,2.436-6.39c.061-.158.053-.409.286-.411.176,0,.227.214.306.348,1.174,2.049,2.3,4.122,3.637,6.077a.545.545,0,0,1,.039.573c-.177.406.017.593.388.721s.7.279.878-.25a.549.549,0,0,1,.427-.393,60.028,60.028,0,0,0,6.686-2.119c.168-.058.363-.2.516-.064.168.153-.008.34-.068.5q-.835,2.23-1.684,4.454c-.253.667-.5,1.334-.769,1.994-.337.828-.767,1.022-1.579.713q-5.391-2.053-10.783-4.109A1.1,1.1,0,0,1,836.514-371.437Z" transform="translate(-787.89 436.18)" fill="#fff"/></g><g transform="matrix(1, 0, 0, 1, -43.98, -29.33)" filter="url(#j)"><path d="M857.2-391.238a4.663,4.663,0,0,1-4.774,4.672,4.668,4.668,0,0,1-4.6-4.726,4.72,4.72,0,0,1,4.7-4.644A4.611,4.611,0,0,1,857.2-391.238Z" transform="translate(-780.89 425.27)" fill="#fff"/></g><g transform="matrix(1, 0, 0, 1, -43.98, -29.33)" filter="url(#l)"><path d="M842.953-378.052c-.353-.514-.286-.731.289-.93a4.232,4.232,0,0,1,4.713,1.846c.19.355.131.618-.263.886,1.038.4,2,.769,2.968,1.13a1.038,1.038,0,0,1,.756.869.579.579,0,0,1-.4.72c-2.223.734-4.416,1.557-6.684,2.149-.392.1-.66.133-.5-.425.1-.363-.222-.434-.462-.526s-.547-.319-.749.05c-.27.488-.447.235-.634-.05-1.286-1.937-2.395-3.977-3.537-6a.535.535,0,0,1,.076-.719.9.9,0,0,1,1-.273c.879.325,1.755.657,2.632.984.268.1.537.191.8.288l4.429,1.7a3.519,3.519,0,0,0-2.748-1.9A10.25,10.25,0,0,0,842.953-378.052Z" transform="translate(-786.71 435.73)" fill="#fff"/></g><g transform="matrix(1, 0, 0, 1, -43.98, -29.33)" filter="url(#n)"><path d="M833.683-355.449a3.394,3.394,0,0,1,3.459-3.422,3.5,3.5,0,0,1,3.455,3.538,3.464,3.464,0,0,1-3.47,3.379A3.392,3.392,0,0,1,833.683-355.449Z" transform="translate(-789.71 448.7)" fill="#fff"/></g><g transform="matrix(1, 0, 0, 1, -43.98, -29.33)" filter="url(#p)"><path d="M840.156-357.886a3.42,3.42,0,0,1,3.521-3.366,3.512,3.512,0,0,1,3.4,3.53,3.456,3.456,0,0,1-3.458,3.386A3.421,3.421,0,0,1,840.156-357.886Z" transform="translate(-785.66 447.17)" fill="#fff"/></g><g transform="matrix(1, 0, 0, 1, -43.98, -29.33)" filter="url(#r)"><path d="M856.7-359.173a3.418,3.418,0,0,1-3.445-3.565,3.443,3.443,0,0,1,3.484-3.351,3.483,3.483,0,0,1,3.433,3.548A3.447,3.447,0,0,1,856.7-359.173Z" transform="translate(-777.48 444.14)" fill="#fff"/></g><g transform="matrix(1, 0, 0, 1, -43.98, -29.33)" filter="url(#t)"><path d="M850.01-356.723a3.384,3.384,0,0,1-3.379-3.506,3.425,3.425,0,0,1,3.435-3.405,3.49,3.49,0,0,1,3.481,3.514A3.5,3.5,0,0,1,850.01-356.723Z" transform="translate(-781.62 445.64)" fill="#fff"/></g></g></svg>