<svg xmlns="http://www.w3.org/2000/svg" xmlns:xlink="http://www.w3.org/1999/xlink" width="97.419" height="93.476" viewBox="0 0 97.419 93.476"><defs><linearGradient id="a" x1="0.5" x2="0.5" y2="1" gradientUnits="objectBoundingBox"><stop offset="0" stop-color="#efefef" stop-opacity="0.6"/><stop offset="1" stop-color="#efefef" stop-opacity="0.102"/></linearGradient><filter id="b" x="5.285" y="10.458" width="58.116" height="65.183" filterUnits="userSpaceOnUse"><feOffset input="SourceAlpha"/><feGaussianBlur stdDeviation="5" result="c"/><feFlood flood-color="#ffe8b9"/><feComposite operator="in" in2="c"/><feComposite in="SourceGraphic"/></filter><filter id="d" x="14.021" y="2.393" width="77.037" height="75.957" filterUnits="userSpaceOnUse"><feOffset input="SourceAlpha"/><feGaussianBlur stdDeviation="5" result="e"/><feFlood flood-color="#ffe8b9"/><feComposite operator="in" in2="e"/><feComposite in="SourceGraphic"/></filter><filter id="f" x="26.165" y="39.154" width="51.318" height="49.266" filterUnits="userSpaceOnUse"><feOffset input="SourceAlpha"/><feGaussianBlur stdDeviation="5" result="g"/><feFlood flood-color="#ffe8b9"/><feComposite operator="in" in2="g"/><feComposite in="SourceGraphic"/></filter><filter id="h" x="51.956" y="43.641" width="45.464" height="45.292" filterUnits="userSpaceOnUse"><feOffset input="SourceAlpha"/><feGaussianBlur stdDeviation="5" result="i"/><feFlood flood-color="#ffe8b9"/><feComposite operator="in" in2="i"/><feComposite in="SourceGraphic"/></filter><filter id="j" x="0" y="41.119" width="42.541" height="47.4" filterUnits="userSpaceOnUse"><feOffset input="SourceAlpha"/><feGaussianBlur stdDeviation="5" result="k"/><feFlood flood-color="#ffe8b9"/><feComposite operator="in" in2="k"/><feComposite in="SourceGraphic"/></filter><filter id="l" x="38.275" y="0.804" width="40.249" height="38.815" filterUnits="userSpaceOnUse"><feOffset input="SourceAlpha"/><feGaussianBlur stdDeviation="5" result="m"/><feFlood flood-color="#ffe8b9"/><feComposite operator="in" in2="m"/><feComposite in="SourceGraphic"/></filter><filter id="n" x="38.926" y="54.29" width="38.508" height="38.079" filterUnits="userSpaceOnUse"><feOffset input="SourceAlpha"/><feGaussianBlur stdDeviation="5" result="o"/><feFlood flood-color="#ffe8b9"/><feComposite operator="in" in2="o"/><feComposite in="SourceGraphic"/></filter><filter id="p" x="28.35" y="54.805" width="36.03" height="37.303" filterUnits="userSpaceOnUse"><feOffset input="SourceAlpha"/><feGaussianBlur stdDeviation="5" result="q"/><feFlood flood-color="#ffe8b9"/><feComposite operator="in" in2="q"/><feComposite in="SourceGraphic"/></filter><filter id="r" x="53.097" y="3.599" width="34.714" height="33.571" filterUnits="userSpaceOnUse"><feOffset input="SourceAlpha"/><feGaussianBlur stdDeviation="5" result="s"/><feFlood flood-color="#ffe8b9"/><feComposite operator="in" in2="s"/><feComposite in="SourceGraphic"/></filter><filter id="t" x="5.28" y="11.207" width="34.686" height="33.218" filterUnits="userSpaceOnUse"><feOffset input="SourceAlpha"/><feGaussianBlur stdDeviation="5" result="u"/><feFlood flood-color="#ffe8b9"/><feComposite operator="in" in2="u"/><feComposite in="SourceGraphic"/></filter><filter id="v" x="54.212" y="7.92" width="34.228" height="33.084" filterUnits="userSpaceOnUse"><feOffset input="SourceAlpha"/><feGaussianBlur stdDeviation="5" result="w"/><feFlood flood-color="#ffe8b9"/><feComposite operator="in" in2="w"/><feComposite in="SourceGraphic"/></filter><filter id="x" x="51.019" y="0.26" width="32.511" height="34.255" filterUnits="userSpaceOnUse"><feOffset input="SourceAlpha"/><feGaussianBlur stdDeviation="5" result="y"/><feFlood flood-color="#ffe8b9"/><feComposite operator="in" in2="y"/><feComposite in="SourceGraphic"/></filter><filter id="z" x="5.267" y="15.132" width="34.001" height="33.179" filterUnits="userSpaceOnUse"><feOffset input="SourceAlpha"/><feGaussianBlur stdDeviation="5" result="aa"/><feFlood flood-color="#ffe8b9"/><feComposite operator="in" in2="aa"/><feComposite in="SourceGraphic"/></filter><filter id="ab" x="8.99" y="7.702" width="32.745" height="34.094" filterUnits="userSpaceOnUse"><feOffset input="SourceAlpha"/><feGaussianBlur stdDeviation="5" result="ac"/><feFlood flood-color="#ffe8b9"/><feComposite operator="in" in2="ac"/><feComposite in="SourceGraphic"/></filter></defs><g transform="translate(2.281)"><circle cx="46.738" cy="46.738" r="46.738" transform="translate(0 0)" fill="url(#a)"/><path d="M46.738,2A44.75,44.75,0,0,0,29.325,87.961,44.75,44.75,0,0,0,64.151,5.515,44.456,44.456,0,0,0,46.738,2m0-2A46.738,46.738,0,1,1,0,46.738,46.738,46.738,0,0,1,46.738,0Z" transform="translate(0 0)" fill="#fff8ea"/><g transform="translate(12.719 15.26)"><g transform="matrix(1, 0, 0, 1, -15, -15.26)" filter="url(#b)"><path d="M635.318-379.378a4.6,4.6,0,0,1-3.131,4.36c-.314.124-.486.177-.245.582a4.592,4.592,0,0,1-2.528,6.9c-.371.129-.5.214-.32.63a4.6,4.6,0,0,1-2.885,6.287c-.549.184-.619.317-.357.851a4.844,4.844,0,0,1-3.866,6.846,6.917,6.917,0,0,1-3.607-.531c-2.586-1.06-5.2-2.053-7.765-3.159a5.133,5.133,0,0,1-3.4-4.657,4.457,4.457,0,0,1,2.6-4.342c.42-.225.582-.342.267-.836a4.561,4.561,0,0,1,2.348-6.873c.449-.169.614-.292.409-.814a4.557,4.557,0,0,1,2.675-6.052c.486-.189.514-.327.264-.77a4.747,4.747,0,0,1,4.032-7.088,6.57,6.57,0,0,1,2.544.373q4.657,1.711,9.314,3.426a5.707,5.707,0,0,1,2.922,2.355A4.525,4.525,0,0,1,635.318-379.378Zm-5.1,2.448a3.442,3.442,0,0,0,.469,0,2.644,2.644,0,0,0,2.2-1.577,2.293,2.293,0,0,0-.383-2.425,3.611,3.611,0,0,0-1.788-1.25q-4.456-1.634-8.9-3.287a4.358,4.358,0,0,0-2-.277,2.61,2.61,0,0,0-2.262,1.577,2.305,2.305,0,0,0,.461,2.524,3.326,3.326,0,0,0,1.428,1.04l9.248,3.42A3.411,3.411,0,0,0,630.221-376.93Zm-5.8,14.348a4.737,4.737,0,0,0,.614-.038,2.628,2.628,0,0,0,2.053-1.587,2.282,2.282,0,0,0-.433-2.416,3.8,3.8,0,0,0-1.746-1.217q-4.476-1.654-8.954-3.309a4.19,4.19,0,0,0-1.75-.28c-1.788.119-2.98,1.483-2.574,3.018a3.207,3.207,0,0,0,2.151,2.206q4.53,1.684,9.07,3.35A4.152,4.152,0,0,0,624.422-362.582Zm-9.661-13.3a2.77,2.77,0,0,0,1.862,2.577q4.958,1.868,9.924,3.717a3.089,3.089,0,0,0,2.818-.416,2.272,2.272,0,0,0,.751-3.088A3.722,3.722,0,0,0,628-374.78q-3.528-1.3-7.054-2.6a19.386,19.386,0,0,0-2.682-.906A2.73,2.73,0,0,0,614.761-375.885ZM612.6-364.023c-1.9-.02-3.256,1.257-3.121,2.835a2.951,2.951,0,0,0,2.013,2.514c2.73,1.139,5.476,2.239,8.229,3.324a3.417,3.417,0,0,0,3.441-.486,2.271,2.271,0,0,0,.829-2.524,3.388,3.388,0,0,0-2.173-2.2q-3.8-1.538-7.6-3.07A5.087,5.087,0,0,0,612.6-364.023Z" transform="translate(-586.92 413.51)" fill="#fff"/></g><g transform="matrix(1, 0, 0, 1, -15, -15.26)" filter="url(#d)"><path d="M656.107-378.041c-.226.824.25,1.3.781,1.849a6.757,6.757,0,0,1,1.2,7.977.791.791,0,0,0,.146,1.015,5.644,5.644,0,0,1,.6,6.868,1.137,1.137,0,0,0-.078,1.148,7.587,7.587,0,0,1,.685,3.72,4.538,4.538,0,0,1-3.146,3.959c-2.558.774-7.871,3.638-10.43,4.408-.481.146-.627.008-.658-.446-.028-.429-.085-.859-.152-1.284s.246-.464.517-.544c2.329-.675,7.4-3.494,9.729-4.171a2.4,2.4,0,0,0,1.924-2.284,5.261,5.261,0,0,0-.521-2.45.336.336,0,0,0-.5-.2,4.744,4.744,0,0,1-.642.221,1.143,1.143,0,0,1-1.315-.662,1.106,1.106,0,0,1,.512-1.426,10.49,10.49,0,0,1,1.088-.433,2.553,2.553,0,0,0,1.632-2.72,4.73,4.73,0,0,0-.843-2.1.629.629,0,0,0-.839-.265,15.277,15.277,0,0,1-1.534.464,1.111,1.111,0,0,1-1.426-.735,1.121,1.121,0,0,1,.771-1.411,3.11,3.11,0,0,1,.708-.212,2.249,2.249,0,0,0,1.816-1.62,4.51,4.51,0,0,0-.975-5.37.867.867,0,0,0-1-.24c-.6.215-1.216.378-1.828.557-.852.252-1.423.01-1.653-.692-.209-.639.151-1.194.959-1.454.567-.183,1.134-.365,1.71-.519a.676.676,0,0,0,.557-.7,3.9,3.9,0,0,0-4.015-4.438,9.272,9.272,0,0,0-3.463.458c-4.033,1.357-10.689,3.834-14.719,5.2-.582.2-.889.136-.993-.5a1.768,1.768,0,0,0-.169-.463c-.428-.891-.545-.847.574-1.224,2.377-.8,7.369-2.746,9.742-3.554.179-.06.469-.036.479-.292.007-.194-.251-.249-.4-.343-2.071-1.3-4.156-2.586-6.216-3.906a6.384,6.384,0,0,0-2.479-.665c-5.561-1-11.125-1.969-16.69-2.949-.619-.108-.728-.013-.721.62a16.865,16.865,0,0,0,1.494,5.208c.257.35.247.526-.239.589a6.188,6.188,0,0,0-1.255.3.564.564,0,0,1-.8-.315c-.96-1.755-1.711-6.219-1.178-8.12a1.093,1.093,0,0,1,1.342-.791q10.075,1.766,20.152,3.538a3.287,3.287,0,0,1,1.2.453c2.679,1.69,5.375,3.352,8.042,5.06a1.609,1.609,0,0,0,1.605.176,10.645,10.645,0,0,1,5.99-.57,5.777,5.777,0,0,1,4.9,5.723C656.112-378.411,656.107-378.225,656.107-378.041Z" transform="translate(-583.67 410.39)" fill="#fff"/></g><g transform="matrix(1, 0, 0, 1, -15, -15.26)" filter="url(#f)"><path d="M641.236-364.043a6.265,6.265,0,0,1-1.791,4.471c-2.6,2.6-5.246,5.161-7.888,7.722-.731.708-1.242.68-1.965-.027-2.557-2.5-5.14-4.977-7.659-7.516a6.121,6.121,0,0,1-1.541-6.911,6.371,6.371,0,0,1,5.584-4.231,6.237,6.237,0,0,1,4.076.881.9.9,0,0,0,1.065,0,6.709,6.709,0,0,1,10.057,4.757A8.4,8.4,0,0,1,641.236-364.043Zm-2.287-.073a4.314,4.314,0,0,0-.1-.942,4.493,4.493,0,0,0-7.049-2.349c-1.182.889-1.224.887-2.4.025a4.309,4.309,0,0,0-4.874-.395,4.164,4.164,0,0,0-.919,6.9c2.163,2.141,4.36,4.247,6.521,6.392.376.375.589.327.94-.018,2.153-2.123,4.331-4.219,6.495-6.331A4.214,4.214,0,0,0,638.949-364.116Z" transform="translate(-578.75 424.75)" fill="#fff"/></g><g transform="matrix(1, 0, 0, 1, -15, -15.26)" filter="url(#h)"><path d="M651.028-353.7a1.126,1.126,0,0,1-.647.988,1.077,1.077,0,0,1-1.3-.262q-1.226-1.3-2.436-2.617c-2.685-2.921-8.019-8.237-10.7-11.158-.569-.618-.523-.58.265-.916,1.168-.5,1.879-.158,2.707.783,2.891,3.285,8.555,8.859,11.52,12.078A1.622,1.622,0,0,1,651.028-353.7Z" transform="translate(-568.61 426.53)" fill="#fff"/></g><g transform="matrix(1, 0, 0, 1, -15, -15.26)" filter="url(#j)"><path d="M604.948-352.013a1.12,1.12,0,0,1-.741-1.765c.541-.9,1.133-1.763,1.708-2.639,2.131-3.247,6.285-9.313,8.4-12.572a.711.711,0,0,1,1.053-.312c1.466.614,1.469.594.6,1.916-2.562,3.9-7.133,10.627-9.685,14.531A1.52,1.52,0,0,1,604.948-352.013Z" transform="translate(-589.02 425.53)" fill="#fff"/></g><g transform="matrix(1, 0, 0, 1, -15, -15.26)" filter="url(#l)"><path d="M637.491-389.056a8.48,8.48,0,0,1-.7,3.083,1.691,1.691,0,0,1-2.46.5c-.307-.28-.063-.483.052-.7a5.559,5.559,0,0,0,.6-4.446c-.237-.755-.234-.758-.952-.395-1.43.721-2.863,1.438-4.286,2.174a.785.785,0,0,1-.909-.033c-.438-.307-.9-.58-1.352-.861-.292-.179-.342-.332.007-.508,2.367-1.189,4.725-2.395,7.1-3.571a1.185,1.185,0,0,1,1.6.5A8.006,8.006,0,0,1,637.491-389.056Z" transform="translate(-573.97 409.76)" fill="#fff"/></g><g transform="matrix(1, 0, 0, 1, -15, -15.26)" filter="url(#n)"><path d="M628.842-361.47a1.059,1.059,0,0,1,.779.381c1.013,1.018,5.147,4.722,6.147,5.752a1.128,1.128,0,0,1,.076,1.6,1.125,1.125,0,0,1-1.607,0c-1.076-1.042-5.242-4.8-6.286-5.873a1.065,1.065,0,0,1-.194-1.257A1.081,1.081,0,0,1,628.842-361.47Z" transform="translate(-573.71 430.76)" fill="#fff"/></g><g transform="matrix(1, 0, 0, 1, -15, -15.26)" filter="url(#p)"><path d="M622.378-353.858a1.065,1.065,0,0,1-1.043-1.513c.816-1.395,3.287-4.25,4.16-5.612.146-.227.317-.232.5-.046.363.358.727.721,1.1,1.075.211.2.166.385.025.6-.745,1.128-3.044,3.776-3.785,4.905A1.235,1.235,0,0,1,622.378-353.858Z" transform="translate(-577.86 430.97)" fill="#fff"/></g><g transform="matrix(1, 0, 0, 1, -15, -15.26)" filter="url(#r)"><path d="M637.341-388.7a1.089,1.089,0,0,1-1-.73.989.989,0,0,1,.368-1.257,17.952,17.952,0,0,1,2.826-1.5.959.959,0,0,1,1.191.4,1.015,1.015,0,0,1,.04,1.264A10.822,10.822,0,0,1,637.341-388.7Z" transform="translate(-568.16 410.87)" fill="#fff"/></g><g transform="matrix(1, 0, 0, 1, -15, -15.26)" filter="url(#t)"><path d="M608.4-387.641a4.7,4.7,0,0,1,.478.134c.725.29,1.451.577,2.168.887a1.154,1.154,0,0,1,.754,1.527,1.144,1.144,0,0,1-1.556.566c-.806-.3-1.609-.625-2.39-.989a1.023,1.023,0,0,1-.605-1.277A1.146,1.146,0,0,1,608.4-387.641Z" transform="translate(-586.92 413.85)" fill="#fff"/></g><g transform="matrix(1, 0, 0, 1, -15, -15.26)" filter="url(#v)"><path d="M638.146-389.666a9.885,9.885,0,0,1,2.657,1.2.953.953,0,0,1,.181,1.29.975.975,0,0,1-1.187.546,17.329,17.329,0,0,1-2.329-.957.981.981,0,0,1-.5-1.211A1.2,1.2,0,0,1,638.146-389.666Z" transform="translate(-567.71 412.59)" fill="#fff"/></g><g transform="matrix(1, 0, 0, 1, -15, -15.26)" filter="url(#x)"><path d="M634.952-391.5c.075-.481.153-1.2.3-1.9a1.11,1.11,0,0,1,1.3-.866,1.144,1.144,0,0,1,.9,1.284c-.088.65-.189,1.3-.317,1.944a1.087,1.087,0,0,1-1.245,1C635.28-390.111,634.944-390.55,634.952-391.5Z" transform="translate(-568.93 409.54)" fill="#fff"/></g><g transform="matrix(1, 0, 0, 1, -15, -15.26)" filter="url(#z)"><path d="M611.192-384.122a1.089,1.089,0,0,1-.463.856,8.952,8.952,0,0,1-2.04,1.115,1.079,1.079,0,0,1-1.358-.512,1.043,1.043,0,0,1,.346-1.408,14.575,14.575,0,0,1,1.985-1.095A1.109,1.109,0,0,1,611.192-384.122Z" transform="translate(-586.92 415.39)" fill="#fff"/></g><g transform="matrix(1, 0, 0, 1, -15, -15.26)" filter="url(#ab)"><path d="M611.162-385.7a1.046,1.046,0,0,1-1.144-.738c-.211-.663-.4-1.335-.554-2.015a1.083,1.083,0,0,1,.781-1.29,1.052,1.052,0,0,1,1.335.678,16.05,16.05,0,0,1,.582,2.133A1.047,1.047,0,0,1,611.162-385.7Z" transform="translate(-585.45 412.5)" fill="#fff"/></g></g></g></svg>