<svg xmlns="http://www.w3.org/2000/svg" xmlns:xlink="http://www.w3.org/1999/xlink" width="98.401" height="96.595" viewBox="0 0 98.401 96.595"><defs><linearGradient id="a" x1="0.5" x2="0.5" y2="1" gradientUnits="objectBoundingBox"><stop offset="0" stop-color="#efefef" stop-opacity="0.6"/><stop offset="1" stop-color="#efefef" stop-opacity="0.102"/></linearGradient><filter id="b" x="0" y="0" width="97.419" height="91.751" filterUnits="userSpaceOnUse"><feOffset input="SourceAlpha"/><feGaussianBlur stdDeviation="5" result="c"/><feFlood flood-color="#ffe8b9"/><feComposite operator="in" in2="c"/><feComposite in="SourceGraphic"/></filter><filter id="d" x="50.456" y="39.865" width="39.216" height="39.23" filterUnits="userSpaceOnUse"><feOffset input="SourceAlpha"/><feGaussianBlur stdDeviation="5" result="e"/><feFlood flood-color="#ffe8b9"/><feComposite operator="in" in2="e"/><feComposite in="SourceGraphic"/></filter><filter id="f" x="29.141" y="39.906" width="39.162" height="39.17" filterUnits="userSpaceOnUse"><feOffset input="SourceAlpha"/><feGaussianBlur stdDeviation="5" result="g"/><feFlood flood-color="#ffe8b9"/><feComposite operator="in" in2="g"/><feComposite in="SourceGraphic"/></filter><filter id="h" x="7.704" y="31.321" width="48.305" height="40.039" filterUnits="userSpaceOnUse"><feOffset input="SourceAlpha"/><feGaussianBlur stdDeviation="5" result="i"/><feFlood flood-color="#ffe8b9"/><feComposite operator="in" in2="i"/><feComposite in="SourceGraphic"/></filter><filter id="j" x="7.779" y="20.443" width="36.937" height="36.881" filterUnits="userSpaceOnUse"><feOffset input="SourceAlpha"/><feGaussianBlur stdDeviation="5" result="k"/><feFlood flood-color="#ffe8b9"/><feComposite operator="in" in2="k"/><feComposite in="SourceGraphic"/></filter><filter id="l" x="18.968" y="20.444" width="36.886" height="36.879" filterUnits="userSpaceOnUse"><feOffset input="SourceAlpha"/><feGaussianBlur stdDeviation="5" result="m"/><feFlood flood-color="#ffe8b9"/><feComposite operator="in" in2="m"/><feComposite in="SourceGraphic"/></filter><filter id="n" x="26.902" y="9.441" width="41.442" height="34.648" filterUnits="userSpaceOnUse"><feOffset input="SourceAlpha"/><feGaussianBlur stdDeviation="5" result="o"/><feFlood flood-color="#ffe8b9"/><feComposite operator="in" in2="o"/><feComposite in="SourceGraphic"/></filter><filter id="p" x="40.358" y="9.433" width="41.448" height="34.663" filterUnits="userSpaceOnUse"><feOffset input="SourceAlpha"/><feGaussianBlur stdDeviation="5" result="q"/><feFlood flood-color="#ffe8b9"/><feComposite operator="in" in2="q"/><feComposite in="SourceGraphic"/></filter></defs><g transform="translate(4.925 3.119)"><circle cx="46.738" cy="46.738" r="46.738" transform="translate(0 0)" fill="url(#a)"/><path d="M46.738,2A44.75,44.75,0,0,0,29.325,87.961,44.75,44.75,0,0,0,64.151,5.515,44.456,44.456,0,0,0,46.738,2m0-2A46.738,46.738,0,1,1,0,46.738,46.738,46.738,0,0,1,46.738,0Z" transform="translate(0 0)" fill="#fff8ea"/><g transform="translate(10.075 11.881)"><g transform="matrix(1, 0, 0, 1, -15, -15)" filter="url(#b)"><path d="M437.59-334.65c-1.752,0-3.5-.015-5.257.008a1.679,1.679,0,0,1-1.6-.854c-1.551-2.48-3.145-4.936-4.7-7.414a1.082,1.082,0,0,0-1.053-.576q-4.285.036-8.57,0a1.029,1.029,0,0,0-1,.558c-1.545,2.462-3.131,4.9-4.67,7.365a1.813,1.813,0,0,1-1.736.922c-3.448-.026-6.894-.009-10.342-.011-1.3,0-1.754-.56-1.465-1.806q1.785-7.686,3.572-15.37a1.918,1.918,0,0,0,.052-.275c.012-.159.174-.337.018-.474s-.323.021-.469.084a16.037,16.037,0,0,1-6.661,1.348,16.711,16.711,0,0,1-10.634-3.766A15.934,15.934,0,0,1,377.128-365,15.825,15.825,0,0,1,381-378.536a16.751,16.751,0,0,1,11.347-5.7,15.865,15.865,0,0,1,6.748.818c.473.163.611.077.72-.4a16.826,16.826,0,0,1,13.5-12.335,16.8,16.8,0,0,1,14.9,4.676,15.871,15.871,0,0,1,4.8,9.907,16.49,16.49,0,0,1-9.86,16.839,16.716,16.716,0,0,1-12.191.6c-.564-.182-.7-.041-.825.463a13.825,13.825,0,0,1-.617,1.916c-.172.433-.086.558.382.553,1.9-.014,3.809.015,5.713-.015a1.979,1.979,0,0,1,1.94,1.006c.4.678.886,1.3,1.319,1.963a.746.746,0,0,0,.708.368c.762-.015,1.523-.017,2.285,0a.741.741,0,0,0,.7-.375c.5-.751,1.029-1.478,1.525-2.231a1.513,1.513,0,0,1,1.341-.714c3.961-.006,7.923-.015,11.884.006.932,0,1.269.356,1.5,1.369q1.373,5.913,2.74,11.829,1.331,5.751,2.663,11.5c.3,1.292-.144,1.836-1.488,1.836Q440.161-334.647,437.59-334.65Zm-.5-2.3c1.313,0,2.628-.015,3.941.006.5.009.631-.128.513-.623-.608-2.539-1.186-5.085-1.774-7.629-.991-4.288-1.995-8.573-2.959-12.867-.138-.618-.4-.8-1.034-.8-3.122.03-6.246.021-9.368.006a.969.969,0,0,0-.932.492c-.45.714-.948,1.4-1.414,2.1a1.454,1.454,0,0,1-1.338.692q-2-.027-4,0a1.521,1.521,0,0,1-1.417-.763c-.444-.695-.937-1.36-1.379-2.056a.925.925,0,0,0-.888-.468q-3.227.022-6.455,0a.955.955,0,0,0-.891.465,15.227,15.227,0,0,1-3.449,3.626,1.467,1.467,0,0,0-.59.907q-1.875,8.151-3.781,16.3c-.1.451-.042.621.49.617q3.884-.036,7.77,0a1.068,1.068,0,0,0,1.052-.567c1.563-2.5,3.167-4.965,4.735-7.457a1.632,1.632,0,0,1,1.546-.832c3.427.022,6.854.033,10.282-.006a1.972,1.972,0,0,1,1.9,1.045c1.522,2.453,3.1,4.873,4.638,7.317a.932.932,0,0,0,.92.5C434.5-336.963,435.8-336.948,437.094-336.948Zm-21.031-28.643a15.148,15.148,0,0,0,2.95-.275A14.281,14.281,0,0,0,430.671-381.1a13.9,13.9,0,0,0-4.151-8.737,14.65,14.65,0,0,0-18.281-1.891,13.935,13.935,0,0,0-6.237,8.9.7.7,0,0,0,.419.893,15.94,15.94,0,0,1,4.545,3.864,1.41,1.41,0,0,0,.743.471,24.6,24.6,0,0,0,4.317.767,37.39,37.39,0,0,0,7.464.084,30.426,30.426,0,0,0,5.392-.887,1.119,1.119,0,0,1,1.478,1.105,4.865,4.865,0,0,1-.066,1.057,7.813,7.813,0,0,1-5.114,5.986,16.178,16.178,0,0,1-10.02-.051c-.575-.23-.63-.206-.551.393a11.593,11.593,0,0,1,.072,2.009.588.588,0,0,0,.469.656A14.516,14.516,0,0,0,416.063-365.591Zm-7.79-2.085a14.327,14.327,0,0,0-14.391-14.3,14.309,14.309,0,0,0-14.612,14.185A14.3,14.3,0,0,0,393.715-353.5,14.323,14.323,0,0,0,408.273-367.676Zm8.02-3.411a9.2,9.2,0,0,0,4.323-.668,6.056,6.056,0,0,0,2.9-2.673c.068-.125.192-.268.084-.412-.1-.126-.246-.041-.375-.024-1.149.147-2.294.335-3.449.43a35.7,35.7,0,0,1-5.642.1c-1.479-.113-2.955-.223-4.42-.468-.556-.092-.591,0-.439.513a4.014,4.014,0,0,0,2.176,2.322A8.977,8.977,0,0,0,416.293-371.087Z" transform="translate(-361.89 411.39)" fill="#fff"/></g><g transform="matrix(1, 0, 0, 1, -15, -15)" filter="url(#d)"><path d="M414.356-360.1a4.66,4.66,0,0,1-4.6-4.712,4.664,4.664,0,0,1,4.667-4.518,4.679,4.679,0,0,1,4.549,4.707A4.706,4.706,0,0,1,414.356-360.1Zm.011-2.45a2.084,2.084,0,0,0,2.171-2.107,2.137,2.137,0,0,0-2.177-2.242,2.146,2.146,0,0,0-2.169,2.189A2.078,2.078,0,0,0,414.366-362.555Z" transform="translate(-344.3 424.2)" fill="#fff"/></g><g transform="matrix(1, 0, 0, 1, -15, -15)" filter="url(#f)"><path d="M400.481-369.309a1.149,1.149,0,0,1,1.184,1.162,15.765,15.765,0,0,1,.022,1.669c-.009.39.136.559.539.544.517-.02,1.037-.017,1.554,0a1.213,1.213,0,0,1,1.275,1.206,1.182,1.182,0,0,1-1.292,1.165c-.5.009-1,.022-1.5,0-.418-.02-.6.129-.581.559.022.5.016,1,0,1.5a1.278,1.278,0,0,1-1.191,1.37,1.275,1.275,0,0,1-1.23-1.39c-.014-.517-.012-1.037,0-1.554,0-.338-.133-.488-.48-.479-.556.014-1.114.012-1.67,0a1.17,1.17,0,0,1-1.216-1.123,1.2,1.2,0,0,1,1.181-1.238c.555-.031,1.112-.028,1.669-.008.42.016.528-.189.519-.563-.012-.536-.022-1.075.009-1.611A1.177,1.177,0,0,1,400.481-369.309Z" transform="translate(-351.75 424.21)" fill="#fff"/></g><g transform="matrix(1, 0, 0, 1, -15, -15)" filter="url(#h)"><path d="M391.121-374.988q3.714,0,7.43,0c1.247,0,1.67.411,1.644,1.663-.034,1.664.228-.376-.151,1.277a9.168,9.168,0,0,1-9.335,7.092,9.171,9.171,0,0,1-8.57-7.741c-.237-1.58-.2.533-.174-1.057.011-.8.551-1.226,1.439-1.23,2-.011,3.993,0,5.99,0Zm.087,2.089c-2.014,0-4.028.012-6.043-.008-.521,0-.632.163-.486.651a7.552,7.552,0,0,0,1.3,2.481,7.887,7.887,0,0,0,5.115,2.369,8.473,8.473,0,0,0,5.262-2.411,7.26,7.26,0,0,0,1.288-2.485c.133-.437.062-.612-.451-.606C395.2-372.883,393.2-372.9,391.208-372.9Z" transform="translate(-359.24 421.31)" fill="#fff"/></g><g transform="matrix(1, 0, 0, 1, -15, -15)" filter="url(#j)"><path d="M385.456-376.331a3.463,3.463,0,0,1-3.461-3.432,3.457,3.457,0,0,1,3.5-3.449,3.464,3.464,0,0,1,3.435,3.46A3.468,3.468,0,0,1,385.456-376.331Zm-1.021-3.466a1.028,1.028,0,0,0,1.015,1.085,1.017,1.017,0,0,0,1.035-1,1.025,1.025,0,0,0-.984-1.113A1.024,1.024,0,0,0,384.435-379.8Z" transform="translate(-359.22 418.65)" fill="#fff"/></g><g transform="matrix(1, 0, 0, 1, -15, -15)" filter="url(#l)"><path d="M392.744-376.332a3.388,3.388,0,0,1-3.415-3.443,3.391,3.391,0,0,1,3.477-3.437,3.441,3.441,0,0,1,3.409,3.469A3.451,3.451,0,0,1,392.744-376.332Zm.016-2.385a1.082,1.082,0,0,0,1.066-1.055,1.085,1.085,0,0,0-1.068-1.055,1.037,1.037,0,0,0-1.044,1.057A1.032,1.032,0,0,0,392.759-378.716Z" transform="translate(-355.36 418.66)" fill="#fff"/></g><g transform="matrix(1, 0, 0, 1, -15, -15)" filter="url(#n)"><path d="M400.105-385.161a6.848,6.848,0,0,1-5.342-2.626,1.165,1.165,0,0,1,.06-1.7,1.179,1.179,0,0,1,1.663.061c.157.141.291.305.44.455a4.428,4.428,0,0,0,6.625-.172,3.617,3.617,0,0,1,.313-.336,1.15,1.15,0,0,1,1.571-.029,1.157,1.157,0,0,1,.189,1.607,6.162,6.162,0,0,1-1.391,1.367A6.6,6.6,0,0,1,400.105-385.161Z" transform="translate(-352.52 414.25)" fill="#fff"/></g><g transform="matrix(1, 0, 0, 1, -15, -15)" filter="url(#p)"><path d="M408.91-385.15a6.859,6.859,0,0,1-5.37-2.634,1.154,1.154,0,0,1,.051-1.7,1.181,1.181,0,0,1,1.782.175,4.846,4.846,0,0,0,2.693,1.655,4.38,4.38,0,0,0,4.238-1.5,1.486,1.486,0,0,1,1.221-.646,1.167,1.167,0,0,1,1.018.737,1.194,1.194,0,0,1-.28,1.328A7.124,7.124,0,0,1,408.91-385.15Z" transform="translate(-347.83 414.25)" fill="#fff"/></g></g></g></svg>