<svg xmlns="http://www.w3.org/2000/svg" xmlns:xlink="http://www.w3.org/1999/xlink" width="97.419" height="99.826" viewBox="0 0 97.419 99.826"><defs><linearGradient id="a" x1="0.5" x2="0.5" y2="1" gradientUnits="objectBoundingBox"><stop offset="0" stop-color="#efefef" stop-opacity="0.6"/><stop offset="1" stop-color="#efefef" stop-opacity="0.102"/></linearGradient><filter id="b" x="59.022" y="42.126" width="38.397" height="53.974" filterUnits="userSpaceOnUse"><feOffset input="SourceAlpha"/><feGaussianBlur stdDeviation="5" result="c"/><feFlood flood-color="#ffe8b9"/><feComposite operator="in" in2="c"/><feComposite in="SourceGraphic"/></filter><filter id="d" x="38.189" y="15.089" width="40.082" height="81.009" filterUnits="userSpaceOnUse"><feOffset input="SourceAlpha"/><feGaussianBlur stdDeviation="5" result="e"/><feFlood flood-color="#ffe8b9"/><feComposite operator="in" in2="e"/><feComposite in="SourceGraphic"/></filter><filter id="f" x="19.161" y="15.139" width="39.972" height="80.958" filterUnits="userSpaceOnUse"><feOffset input="SourceAlpha"/><feGaussianBlur stdDeviation="5" result="g"/><feFlood flood-color="#ffe8b9"/><feComposite operator="in" in2="g"/><feComposite in="SourceGraphic"/></filter><filter id="h" x="44.897" y="16.728" width="42.578" height="79.37" filterUnits="userSpaceOnUse"><feOffset input="SourceAlpha"/><feGaussianBlur stdDeviation="5" result="i"/><feFlood flood-color="#ffe8b9"/><feComposite operator="in" in2="i"/><feComposite in="SourceGraphic"/></filter><filter id="j" x="9.952" y="16.723" width="42.575" height="79.376" filterUnits="userSpaceOnUse"><feOffset input="SourceAlpha"/><feGaussianBlur stdDeviation="5" result="k"/><feFlood flood-color="#ffe8b9"/><feComposite operator="in" in2="k"/><feComposite in="SourceGraphic"/></filter><filter id="l" x="25.346" y="0" width="46.74" height="46.708" filterUnits="userSpaceOnUse"><feOffset input="SourceAlpha"/><feGaussianBlur stdDeviation="5" result="m"/><feFlood flood-color="#ffe8b9"/><feComposite operator="in" in2="m"/><feComposite in="SourceGraphic"/></filter><filter id="n" x="32.599" y="45.265" width="32.236" height="50.831" filterUnits="userSpaceOnUse"><feOffset input="SourceAlpha"/><feGaussianBlur stdDeviation="5" result="o"/><feFlood flood-color="#ffe8b9"/><feComposite operator="in" in2="o"/><feComposite in="SourceGraphic"/></filter><filter id="p" x="0" y="42.124" width="38.406" height="53.975" filterUnits="userSpaceOnUse"><feOffset input="SourceAlpha"/><feGaussianBlur stdDeviation="5" result="q"/><feFlood flood-color="#ffe8b9"/><feComposite operator="in" in2="q"/><feComposite in="SourceGraphic"/></filter></defs><g transform="translate(2.281 6.35)" opacity="0.997"><circle cx="46.738" cy="46.738" r="46.738" transform="translate(0 0)" fill="url(#a)"/><path d="M46.738,2A44.75,44.75,0,0,0,29.325,87.961,44.75,44.75,0,0,0,64.151,5.515,44.456,44.456,0,0,0,46.738,2m0-2A46.738,46.738,0,1,1,0,46.738,46.738,46.738,0,0,1,46.738,0Z" transform="translate(0 0)" fill="#fff8ea"/><g transform="translate(12.719 8.65)"><g transform="matrix(1, 0, 0, 1, -15, -15)" filter="url(#b)"><path d="M-37.959-364.282a1.135,1.135,0,0,1-1.078.476,1.068,1.068,0,0,1-.851-1.553c.673-1.441,1.392-2.861,2.147-4.261a1.044,1.044,0,0,1,1.842.023c.739,1.386,1.431,2.8,2.113,4.214a1.023,1.023,0,0,1-.291,1.344,1.078,1.078,0,0,1-1.415-.063l-.181-.139a.919.919,0,0,0-.068.574q0,7.275,0,14.551c0,.773,0,.773.8.775.728,0,1.458-.009,2.185,0a1.055,1.055,0,0,1,1.155,1.079,1.011,1.011,0,0,1-1.144,1.066q-2.014.012-4.027,0a.98.98,0,0,1-1.121-.965,7.323,7.323,0,0,1-.059-.974q0-7.477,0-14.955Z" transform="translate(114.02 427.29)" fill="rgba(255,255,255,0.99)"/></g><g transform="matrix(1, 0, 0, 1, -15, -15)" filter="url(#d)"><path d="M-53.147-385.453a9.044,9.044,0,0,0,1.658-1.111c1.41-1.486,3.078-1.157,4.686-.656a5.329,5.329,0,0,1,3.73,5.2q.019,11.708,0,23.416a3.253,3.253,0,0,1-3.364,3.322c-.73,0-1.46.034-2.187-.011-.552-.032-.673.19-.671.7q.021,7.739.009,15.476c0,.441.011.883-.006,1.324a1.054,1.054,0,0,1-1.075,1.162,1.063,1.063,0,0,1-1.14-1.1c-.017-.172-.011-.345-.011-.518q0-13.979,0-27.961a3.625,3.625,0,0,1,.039-.687,1.12,1.12,0,0,1,1.095-.923,1.117,1.117,0,0,1,1.053.9,3.479,3.479,0,0,1,.043.685q0,3.971,0,7.94c0,.783,0,.784.806.786.691,0,1.381.009,2.072,0a1.025,1.025,0,0,0,1.078-1.028c.011-.113.008-.229.008-.345q0-11.476,0-22.955a3.335,3.335,0,0,0-2.529-3.413,5.519,5.519,0,0,0-1.316-.074c-1.265-.011-2.532-.014-3.8-.023C-53-385.353-53.028-385.387-53.147-385.453Z" transform="translate(106.34 417.73)" fill="rgba(255,255,255,0.99)"/></g><g transform="matrix(1, 0, 0, 1, -15, -15)" filter="url(#f)"><path d="M-55.53-385.487a.83.83,0,0,1-.66.133c-1.284.009-2.569-.008-3.854.011a3.162,3.162,0,0,0-3.214,3.212q-.023,11.706-.006,23.412c0,.868.312,1.172,1.183,1.188.728.014,1.458-.017,2.185.012.483.019.628-.167.625-.637-.015-2.7-.008-5.408-.006-8.112,0-1.026.382-1.567,1.1-1.574s1.127.568,1.127,1.568q0,14.065,0,28.128c0,1.015-.359,1.486-1.109,1.494a1.012,1.012,0,0,1-1.1-.943,4.861,4.861,0,0,1-.022-.688q0-8.112,0-16.223c0-.793,0-.793-.784-.795-.728,0-1.457,0-2.187,0a3.242,3.242,0,0,1-3.24-3.206c-.023-1.706-.006-3.413-.006-5.119q0-9.147,0-18.292a5.453,5.453,0,0,1,5.317-5.654c.1-.006.193,0,.288-.008a2.815,2.815,0,0,1,2.546.823A11.271,11.271,0,0,0-55.53-385.487Z" transform="translate(99.66 417.75)" fill="rgba(255,255,255,0.99)"/></g><g transform="matrix(1, 0, 0, 1, -15, -15)" filter="url(#h)"><path d="M-40.455-380.642c-.2.13-.3.2-.4.249a1.082,1.082,0,0,1-1.284-.147.961.961,0,0,1-.277-1.2c.688-1.434,1.376-2.869,2.13-4.268a1.09,1.09,0,0,1,1.933.026c.725,1.372,1.4,2.77,2.077,4.17a1,1,0,0,1-.283,1.294c-.464.382-.962.332-1.676-.19v41.492a2.241,2.241,0,0,1-.223,1.225,1.507,1.507,0,0,1-1.38.778c-2.589,0-5.178,0-7.765,0a1.048,1.048,0,0,1-1.126-1.045,1.071,1.071,0,0,1,1.093-1.095c1.4-.02,2.8-.008,4.2-.009.806,0,1.611-.017,2.416.006.435.014.6-.162.563-.575-.012-.133,0-.268,0-.4v-40.306Z" transform="translate(108.62 418.31)" fill="rgba(255,255,255,0.99)"/></g><g transform="matrix(1, 0, 0, 1, -15, -15)" filter="url(#j)"><path d="M-67.14-380.6a1.1,1.1,0,0,0-.085.653q0,19.871,0,39.745c0,.843,0,.844.86.844h5.752c.172,0,.345,0,.517,0a1.115,1.115,0,0,1,1.132,1.129,1.047,1.047,0,0,1-1.158,1.016c-2.416.009-4.831,0-7.247,0-.173,0-.345,0-.518,0a1.54,1.54,0,0,1-1.554-1.522c-.014-.249-.006-.5-.006-.747V-380.7c-.165.122-.263.209-.374.274a1.071,1.071,0,0,1-1.288-.07.965.965,0,0,1-.323-1.236c.691-1.452,1.39-2.9,2.153-4.321a1.073,1.073,0,0,1,1.867.026c.758,1.4,1.449,2.832,2.136,4.267a.992.992,0,0,1-.3,1.248C-66-380.154-66.49-380.182-67.14-380.6Z" transform="translate(96.49 418.31)" fill="rgba(255,255,255,0.99)"/></g><g transform="matrix(1, 0, 0, 1, -15, -15)" filter="url(#l)"><path d="M-53.085-397.633a8.382,8.382,0,0,1,8.348,8.353,8.44,8.44,0,0,1-8.375,8.354,8.4,8.4,0,0,1-8.365-8.47A8.373,8.373,0,0,1-53.085-397.633Zm-.029,2.211a6.075,6.075,0,0,0-6.129,6.072,6.113,6.113,0,0,0,6.134,6.2,6.14,6.14,0,0,0,6.141-6.086A6.107,6.107,0,0,0-53.115-395.421Z" transform="translate(101.82 412.63)" fill="rgba(255,255,255,0.99)"/></g><g transform="matrix(1, 0, 0, 1, -15, -15)" filter="url(#n)"><path d="M-54.552-357.672q0,4.512,0,9.024c0,.883-.365,1.33-1.064,1.349a1.027,1.027,0,0,1-1.134-.908,3.919,3.919,0,0,1-.031-.688q0-8.794,0-17.589c0-.173-.006-.346.008-.518a1.151,1.151,0,0,1,1.087-1.127,1.153,1.153,0,0,1,1.131,1.144c.014.192.008.384.008.576Z" transform="translate(104.39 428.39)" fill="rgba(255,255,255,0.99)"/></g><g transform="matrix(1, 0, 0, 1, -15, -15)" filter="url(#p)"><path d="M-73.459-364.191a3.4,3.4,0,0,1-.578.334,1.068,1.068,0,0,1-1.165-.278,1,1,0,0,1-.2-1.175c.7-1.451,1.4-2.9,2.161-4.319a1.041,1.041,0,0,1,1.814,0c.758,1.4,1.465,2.826,2.153,4.259a1.037,1.037,0,0,1-.314,1.346A1.077,1.077,0,0,1-71-364.113c-.056-.043-.116-.082-.184-.131a1.157,1.157,0,0,0-.067.639q-.007,7.971,0,15.939c0,1.217-.268,1.48-1.491,1.48-1.208,0-2.416,0-3.625,0-.759,0-1.166-.362-1.183-1.025a1.042,1.042,0,0,1,1.163-1.121c.826-.014,1.65-.011,2.474,0,.317,0,.506-.068.506-.442q-.016-7.681-.017-15.362C-73.43-364.156-73.447-364.171-73.459-364.191Z" transform="translate(92.56 427.28)" fill="rgba(255,255,255,0.99)"/></g></g></g></svg>