<svg xmlns="http://www.w3.org/2000/svg" xmlns:xlink="http://www.w3.org/1999/xlink" width="132.195" height="132.195" viewBox="0 0 132.195 132.195"><defs><linearGradient id="a" x1="0.5" x2="0.5" y2="1" gradientUnits="objectBoundingBox"><stop offset="0" stop-color="#efefef" stop-opacity="0.6"/><stop offset="1" stop-color="#efefef" stop-opacity="0.102"/></linearGradient></defs><circle cx="46.738" cy="46.738" r="46.738" transform="translate(0 66.097) rotate(-45)" fill="url(#a)"/><path d="M46.738,2A44.75,44.75,0,0,0,29.325,87.961,44.75,44.75,0,0,0,64.151,5.515,44.456,44.456,0,0,0,46.738,2m0-2A46.738,46.738,0,1,1,0,46.738,46.738,46.738,0,0,1,46.738,0Z" transform="translate(0 66.097) rotate(-45)" fill="#fff8ea"/><g transform="translate(32.079 41.435)"><path d="M336.468-336.187a11.208,11.208,0,0,0-2.968-4.62,66.2,66.2,0,0,0-7.577-6.813c-4.763-3.787-9.757-7.261-14.8-10.669a20.383,20.383,0,0,1-5.627-6.3,16.409,16.409,0,0,1-2.706-9.848c.382-6.7,3.063-12.23,8.925-15.981a14.753,14.753,0,0,1,7.058-2.113,18.975,18.975,0,0,1,11.56,2.7,24.982,24.982,0,0,1,5.743,5.2c.394.463.48.36.817-.023,2.876-3.275,6.051-6.17,10.484-7.24,4.851-1.171,9.606-1.159,14.027,1.524a18,18,0,0,1,7.326,9.049,20.057,20.057,0,0,1,1.453,7.588,16.737,16.737,0,0,1-2.918,9.359c-.246.37-.421.4-.662.007a3.846,3.846,0,0,0-.51-.622c-.687-.7-.7-.7-.19-1.587,2.421-4.23,2.408-8.645.9-13.116a15.83,15.83,0,0,0-7.157-9.034,12.923,12.923,0,0,0-4.921-1.52,17.3,17.3,0,0,0-9.784,1.666,10.68,10.68,0,0,0-2.488,1.642c-1.185,1.04-2.366,2.081-3.445,3.23a3.106,3.106,0,0,0-.527.759,2.191,2.191,0,0,1-2.046,1.3,2.237,2.237,0,0,1-2.079-1.345,10.007,10.007,0,0,0-2.009-2.26,16.342,16.342,0,0,0-8.287-4.693,17.194,17.194,0,0,0-8.176.136,13.011,13.011,0,0,0-6.846,4.643,17.976,17.976,0,0,0-3.938,10.343,15.717,15.717,0,0,0,3.312,10.559,19.56,19.56,0,0,0,5.219,4.983,167.75,167.75,0,0,1,16.487,12.151,44.6,44.6,0,0,1,5.917,5.757c.337.41.562.433.9-.007a24.224,24.224,0,0,1,2.507-2.668c.1-.094.19-.26.355-.2s.116.247.113.38a5.716,5.716,0,0,0,.237,2.01c.089.259-.071.42-.229.594-.544.6-1.1,1.187-1.61,1.809A9.1,9.1,0,0,0,336.468-336.187Z" transform="translate(-302.76 392.633)" fill="#fff"/><path d="M336.459-335.251l-.232-.871a10.947,10.947,0,0,0-2.911-4.515,66.816,66.816,0,0,0-7.548-6.787c-4.933-3.922-10.023-7.44-14.789-10.657a20.78,20.78,0,0,1-5.7-6.371,16.668,16.668,0,0,1-2.744-10,21.854,21.854,0,0,1,2.437-9.2,18.96,18.96,0,0,1,6.6-6.976,14.932,14.932,0,0,1,7.175-2.151c.539-.038,1.08-.057,1.606-.057a18.925,18.925,0,0,1,10.1,2.8,24.769,24.769,0,0,1,5.8,5.247,1.162,1.162,0,0,0,.212.212,2.127,2.127,0,0,0,.221-.231l.006-.007a30.142,30.142,0,0,1,4.7-4.482,16.162,16.162,0,0,1,5.917-2.835,24.445,24.445,0,0,1,5.765-.749,15.829,15.829,0,0,1,8.45,2.3,18.16,18.16,0,0,1,7.428,9.169,20.335,20.335,0,0,1,1.471,7.682,17.025,17.025,0,0,1-2.959,9.5.725.725,0,0,1-.548.4c-.258,0-.429-.228-.535-.4a3.676,3.676,0,0,0-.477-.579l-.015-.015c-.755-.775-.769-.9-.213-1.87,2.216-3.871,2.5-8.094.884-12.912a15.65,15.65,0,0,0-7.046-8.9A12.564,12.564,0,0,0,354.693-390a16.436,16.436,0,0,0-2.1-.136,17.6,17.6,0,0,0-7.544,1.781,10.359,10.359,0,0,0-2.43,1.6c-1.09.956-2.325,2.04-3.428,3.213a2.85,2.85,0,0,0-.485.7,2.443,2.443,0,0,1-2.269,1.436h-.005a2.489,2.489,0,0,1-2.3-1.481,6.348,6.348,0,0,0-1.4-1.655c-.186-.176-.379-.357-.562-.544A15.985,15.985,0,0,0,324-389.7a17.483,17.483,0,0,0-3.776-.421,16.99,16.99,0,0,0-4.283.555,12.685,12.685,0,0,0-6.715,4.559,17.8,17.8,0,0,0-3.883,10.2,15.4,15.4,0,0,0,3.265,10.395,19.268,19.268,0,0,0,5.154,4.92,167.008,167.008,0,0,1,16.511,12.169,45,45,0,0,1,5.949,5.79c.175.213.248.223.261.223s.082-.006.251-.225a24.584,24.584,0,0,1,2.533-2.7c.013-.012.029-.031.047-.05a.557.557,0,0,1,.411-.231.449.449,0,0,1,.156.029.483.483,0,0,1,.28.561c0,.021,0,.041,0,.06a5.52,5.52,0,0,0,.224,1.922.782.782,0,0,1-.262.823l-.018.02-.288.315c-.44.48-.894.977-1.313,1.485a8.806,8.806,0,0,0-1.795,3.18Zm-16.1-57.083c-.515,0-1.044.019-1.571.056a14.449,14.449,0,0,0-6.941,2.074c-5.448,3.485-8.412,8.8-8.811,15.785a16.178,16.178,0,0,0,2.667,9.7,20.326,20.326,0,0,0,5.556,6.224c4.774,3.223,9.874,6.748,14.82,10.68a67.271,67.271,0,0,1,7.6,6.84,12.754,12.754,0,0,1,2.792,4,10.1,10.1,0,0,1,1.642-2.642c.427-.517.886-1.019,1.33-1.5l.287-.314.019-.02c.167-.183.191-.231.159-.323a5.968,5.968,0,0,1-.251-2.1c0-.015,0-.029,0-.044-.015.016-.031.033-.048.049a24.151,24.151,0,0,0-2.482,2.64.878.878,0,0,1-.646.418.907.907,0,0,1-.647-.406,44.56,44.56,0,0,0-5.884-5.725,166.515,166.515,0,0,0-16.462-12.133,19.759,19.759,0,0,1-5.285-5.045,15.88,15.88,0,0,1-3.359-10.724,18.291,18.291,0,0,1,3.994-10.484,13.166,13.166,0,0,1,6.977-4.727,17.49,17.49,0,0,1,4.409-.571,17.985,17.985,0,0,1,3.884.433,16.692,16.692,0,0,1,8.412,4.762c.176.18.365.358.548.53a6.821,6.821,0,0,1,1.5,1.791,1.992,1.992,0,0,0,1.853,1.209,1.943,1.943,0,0,0,1.826-1.157,3.342,3.342,0,0,1,.569-.82c1.118-1.191,2.364-2.283,3.462-3.247a11,11,0,0,1,2.546-1.68,18.1,18.1,0,0,1,7.758-1.829,16.938,16.938,0,0,1,2.165.14,13.04,13.04,0,0,1,5.015,1.552,15.5,15.5,0,0,1,4.518,3.925,17.736,17.736,0,0,1,2.751,5.245,18.293,18.293,0,0,1,1.032,6.741,14.636,14.636,0,0,1-1.957,6.579,1.876,1.876,0,0,0-.321.7c.013.112.18.284.458.569l.015.015a4.136,4.136,0,0,1,.543.664.788.788,0,0,0,.112.15.86.86,0,0,0,.13-.162,16.533,16.533,0,0,0,2.876-9.221,19.837,19.837,0,0,0-1.435-7.494,17.679,17.679,0,0,0-7.224-8.928,15.343,15.343,0,0,0-8.191-2.23,23.954,23.954,0,0,0-5.647.735c-4.547,1.1-7.786,4.236-10.355,7.161l-.006.007c-.209.237-.359.409-.594.409-.215,0-.387-.151-.595-.4a24.3,24.3,0,0,0-5.684-5.146A18.433,18.433,0,0,0,320.358-392.334Z" transform="translate(-302.76 392.633)" fill="#fff"/><path d="M319.866-364.9c0-1.392,0-2.787,0-4.181a1.927,1.927,0,0,1,2.2-2.166c2.474,0,4.951-.015,7.425.012.565,0,.757-.146.75-.733-.03-2.5-.017-4.993-.012-7.489a2,2,0,0,1,2.188-2.229q4.213-.035,8.425,0a2.083,2.083,0,0,1,2.305,2.34c.01,2.454.017,4.909-.008,7.363-.005.562.153.758.74.75,2.475-.03,4.951-.015,7.427-.01a1.905,1.905,0,0,1,2.119,1.882,27.829,27.829,0,0,1,.049,3.367c-.013,1.954.1,3.912-.065,5.863a1.809,1.809,0,0,1-1.607,1.719,5.733,5.733,0,0,1-.931.071c-2.37,0-4.743.017-7.113-.007-.538-.005-.725.159-.72.713.025,2.475.013,4.951.01,7.427a1.943,1.943,0,0,1-2.112,2.218q-4.306.05-8.611,0a1.927,1.927,0,0,1-2.094-2.174c0-2.475-.017-4.951.01-7.425.007-.569-.159-.763-.738-.757-2.35.025-4.7.012-7.053.008a6.25,6.25,0,0,1-.869-.052,1.844,1.844,0,0,1-1.711-1.951c-.012-1.518,0-3.036,0-4.556Zm21.1-10.026c0-1.268-.02-2.537.01-3.8.012-.517-.156-.683-.674-.678-2.35.022-4.7.008-7.051.01-.834,0-.836,0-.837.815,0,2.372.01,4.743-.005,7.113a2.121,2.121,0,0,1-2.273,2.387c-.206.012-.416.007-.622.007-2.206,0-4.411.015-6.615-.01-.575-.007-.757.2-.751.76q.033,3.558,0,7.113c-.007.547.176.718.721.711,2.391-.023,4.783-.012,7.175-.008,1.641,0,2.386.752,2.389,2.409.005,2.329.017,4.659-.008,6.987-.007.559.143.772.732.765q3.556-.043,7.113,0c.55.005.715-.181.708-.723-.023-2.37-.012-4.741-.008-7.113,0-1.666.767-2.426,2.453-2.429,2.37,0,4.743-.007,7.113.005.445,0,.691-.076.686-.609q-.03-3.619,0-7.237c0-.52-.225-.629-.679-.624-1.5.015-2.995.01-4.493,0-1.059,0-2.124.037-3.177-.052a1.911,1.911,0,0,1-1.9-2.114C340.959-372.474,340.969-373.7,340.968-374.928Z" transform="translate(-291.117 399.381)" fill="#fff"/><path d="M336.629-381.956c1.36,0,2.779.005,4.218.016a2.579,2.579,0,0,1,1.9.678,2.647,2.647,0,0,1,.657,1.911c.01,2.367.017,4.885-.008,7.367a.642.642,0,0,0,.081.416.571.571,0,0,0,.374.081h.031c1.025-.012,2.125-.018,3.464-.018.869,0,1.752,0,2.606,0l1.361,0a2.155,2.155,0,0,1,2.367,2.1,19.42,19.42,0,0,1,.063,2.6c-.005.262-.011.533-.013.8,0,.608,0,1.227.012,1.827.018,1.328.036,2.7-.078,4.056a2.067,2.067,0,0,1-1.815,1.945,6.006,6.006,0,0,1-.973.074l-1.144,0c-.886,0-1.8,0-2.7,0-1.255,0-2.293,0-3.268-.014h-.021a.567.567,0,0,0-.368.079.587.587,0,0,0-.078.382c.021,2.021.016,4.076.012,6.063q0,.683,0,1.366a2.2,2.2,0,0,1-2.359,2.467c-1.456.017-2.907.026-4.314.026-1.45,0-2.9-.009-4.3-.027a2.17,2.17,0,0,1-2.34-2.424l0-1.116c-.005-2.069-.01-4.208.013-6.313a.643.643,0,0,0-.083-.421.573.573,0,0,0-.377-.083h-.026c-.956.01-1.987.015-3.244.015q-1.175,0-2.349,0l-1.463,0a6.478,6.478,0,0,1-.905-.055,2.1,2.1,0,0,1-1.925-2.2c-.008-1.044-.006-2.1,0-3.129q0-.593,0-1.186l0-.244q0-.6,0-1.208c0-.974,0-1.982,0-2.973a2.164,2.164,0,0,1,2.451-2.415l1.668,0,2.144,0c1.422,0,2.571.005,3.616.017h.024a.613.613,0,0,0,.4-.08.623.623,0,0,0,.078-.4c-.025-2.091-.02-4.215-.015-6.27q0-.611,0-1.222a2.252,2.252,0,0,1,2.435-2.479C333.781-381.95,335.2-381.956,336.629-381.956Zm7.218,10.969a.994.994,0,0,1-.729-.229,1.046,1.046,0,0,1-.226-.773c.025-2.478.018-4.995.008-7.36a1.836,1.836,0,0,0-2.057-2.091c-1.438-.01-2.856-.016-4.214-.016-1.429,0-2.845.006-4.207.017a1.748,1.748,0,0,0-1.94,1.98q0,.611,0,1.222c-.005,2.053-.011,4.176.015,6.263a1.036,1.036,0,0,1-.223.758,1.016,1.016,0,0,1-.751.229h-.028C328.448-371,327.3-371,325.881-371l-2.143,0-1.668,0c-1.343,0-1.945.593-1.951,1.917,0,.99,0,2,0,2.971q0,.479,0,.959h0l0,.25q0,.715,0,1.43c0,1.024,0,2.083,0,3.124a1.6,1.6,0,0,0,1.5,1.706,6.026,6.026,0,0,0,.833.049l1.462,0q1.174,0,2.348,0c1.256,0,2.285,0,3.239-.015h.031a1,1,0,0,1,.733.232,1.066,1.066,0,0,1,.227.778c-.023,2.1-.018,4.238-.013,6.306l0,1.116a1.688,1.688,0,0,0,1.847,1.925c1.4.018,2.849.027,4.3.027,1.4,0,2.855-.009,4.309-.026,1.253-.015,1.864-.659,1.865-1.968q0-.683,0-1.367c0-1.986.008-4.04-.012-6.057a1.007,1.007,0,0,1,.223-.739.987.987,0,0,1,.723-.227h.026c.973.01,2.01.014,3.263.014.9,0,1.817,0,2.7,0l1.145,0a5.508,5.508,0,0,0,.891-.067,1.556,1.556,0,0,0,1.4-1.494c.112-1.33.094-2.691.077-4.008-.008-.6-.016-1.224-.012-1.837,0-.269.008-.542.013-.805a19.043,19.043,0,0,0-.06-2.532A1.655,1.655,0,0,0,351.308-371l-1.361,0c-.854,0-1.737,0-2.6,0-1.337,0-2.435.006-3.457.018Zm-3.521-8.674a.939.939,0,0,1,.695.221.958.958,0,0,1,.207.712c-.022.9-.017,1.821-.013,2.709q0,.545,0,1.09,0,.617,0,1.234c0,.8,0,1.631.006,2.446a1.668,1.668,0,0,0,1.671,1.867c.592.05,1.175.057,1.667.057.216,0,.432,0,.649,0,.281,0,.561,0,.841,0,.7,0,1.524.007,2.334.007.794,0,1.5,0,2.155-.01h.032a.941.941,0,0,1,.69.216.872.872,0,0,1,.21.66c-.02,2.4-.02,4.833,0,7.233a.856.856,0,0,1-.206.648.962.962,0,0,1-.717.214h-.014c-1.125-.006-2.315-.008-3.747-.008q-1.663,0-3.326,0h-.039c-1.543,0-2.2.655-2.2,2.179q0,.684,0,1.368c0,1.883-.008,3.829.011,5.742a1.021,1.021,0,0,1-.221.749.971.971,0,0,1-.715.227h-.025c-1.247-.012-2.461-.019-3.606-.019-1.2,0-2.379.007-3.5.02h-.029a1,1,0,0,1-.728-.232,1.063,1.063,0,0,1-.227-.786c.021-1.967.016-3.969.011-5.906l0-1.078c0-1.512-.643-2.158-2.139-2.16l-1.362,0q-1.22,0-2.44,0c-1.307,0-2.377,0-3.37.014h-.033a.979.979,0,0,1-.72-.228,1,1,0,0,1-.221-.737c.022-2.357.022-4.749,0-7.108a1.057,1.057,0,0,1,.234-.775,1.022,1.022,0,0,1,.741-.237h.03c.87.01,1.827.015,3.009.015l1.8,0,1.8,0h.289c.089,0,.2,0,.319-.007a1.883,1.883,0,0,0,2.037-2.139c.01-1.578.008-3.183.006-4.735q0-1.188,0-2.376c0-.462,0-.716.182-.892s.436-.173.905-.173h.446l3.344,0c1.312,0,2.317,0,3.258-.013Zm4.235,10.837c-.5,0-1.1-.007-1.71-.059a2.156,2.156,0,0,1-2.128-2.361c-.009-.818-.007-1.649-.006-2.452q0-.616,0-1.232,0-.544,0-1.088c0-.892-.008-1.814.013-2.723.005-.23-.032-.318-.065-.351a.529.529,0,0,0-.337-.071h-.02c-.943.009-1.949.013-3.263.013l-3.344,0h-.446a2.307,2.307,0,0,0-.556.032,2.218,2.218,0,0,0-.032.534q0,1.188,0,2.375c0,1.553,0,3.159-.006,4.739a2.359,2.359,0,0,1-2.508,2.635c-.129.007-.254.008-.349.008h-.289l-1.8,0-1.8,0c-1.184,0-2.142,0-3.015-.015h-.024a.576.576,0,0,0-.386.089.624.624,0,0,0-.089.419c.022,2.362.022,4.757,0,7.118a.582.582,0,0,0,.077.38.557.557,0,0,0,.364.079h.027c.995-.01,2.067-.014,3.375-.014q1.221,0,2.441,0l1.362,0a2.332,2.332,0,0,1,2.639,2.659l0,1.078c.005,1.938.01,3.942-.011,5.913a.66.66,0,0,0,.083.429.563.563,0,0,0,.373.083h.023c1.125-.014,2.3-.02,3.507-.02,1.147,0,2.362.006,3.611.019h.02a.548.548,0,0,0,.359-.078.607.607,0,0,0,.077-.392c-.019-1.917-.015-3.865-.011-5.749q0-.684,0-1.368a2.369,2.369,0,0,1,2.7-2.679h.039q1.663,0,3.326,0c1.433,0,2.624,0,3.749.008h.012a.648.648,0,0,0,.362-.065.457.457,0,0,0,.061-.291c-.02-2.4-.02-4.839,0-7.242a.464.464,0,0,0-.065-.3.518.518,0,0,0-.335-.068h-.027c-.658.007-1.365.01-2.16.01-.811,0-1.631,0-2.336-.007-.279,0-.557,0-.835,0C345-368.826,344.778-368.824,344.561-368.824Z" transform="translate(-291.117 399.381)" fill="#fff"/></g></svg>