<svg xmlns="http://www.w3.org/2000/svg" xmlns:xlink="http://www.w3.org/1999/xlink" width="132.195" height="132.195" viewBox="0 0 132.195 132.195"><defs><linearGradient id="a" x1="0.5" x2="0.5" y2="1" gradientUnits="objectBoundingBox"><stop offset="0" stop-color="#efefef" stop-opacity="0.6"/><stop offset="1" stop-color="#efefef" stop-opacity="0.102"/></linearGradient><filter id="b" x="44.736" y="50.84" width="64.997" height="58.632" filterUnits="userSpaceOnUse"><feOffset input="SourceAlpha"/><feGaussianBlur stdDeviation="5" result="c"/><feFlood flood-color="#ffe8b9"/><feComposite operator="in" in2="c"/><feComposite in="SourceGraphic"/></filter><filter id="d" x="27.834" y="59.808" width="45.428" height="46.655" filterUnits="userSpaceOnUse"><feOffset dy="3" input="SourceAlpha"/><feGaussianBlur stdDeviation="3" result="e"/><feFlood flood-color="#ffe8b9"/><feComposite operator="in" in2="e"/><feComposite in="SourceGraphic"/></filter><filter id="f" x="57.591" y="32.599" width="41.364" height="41.362" filterUnits="userSpaceOnUse"><feOffset dy="3" input="SourceAlpha"/><feGaussianBlur stdDeviation="3" result="g"/><feFlood flood-color="#ffe8b9"/><feComposite operator="in" in2="g"/><feComposite in="SourceGraphic"/></filter><filter id="h" x="32.623" y="32.586" width="41.354" height="41.359" filterUnits="userSpaceOnUse"><feOffset dy="3" input="SourceAlpha"/><feGaussianBlur stdDeviation="3" result="i"/><feFlood flood-color="#ffe8b9"/><feComposite operator="in" in2="i"/><feComposite in="SourceGraphic"/></filter><filter id="j" x="76.732" y="54.662" width="31.766" height="44.389" filterUnits="userSpaceOnUse"><feOffset dy="3" input="SourceAlpha"/><feGaussianBlur stdDeviation="3" result="k"/><feFlood flood-color="#ffe8b9"/><feComposite operator="in" in2="k"/><feComposite in="SourceGraphic"/></filter><filter id="l" x="23.079" y="54.699" width="31.777" height="44.355" filterUnits="userSpaceOnUse"><feOffset dy="3" input="SourceAlpha"/><feGaussianBlur stdDeviation="3" result="m"/><feFlood flood-color="#ffe8b9"/><feComposite operator="in" in2="m"/><feComposite in="SourceGraphic"/></filter><filter id="n" x="51.534" y="54.16" width="27.476" height="21.4" filterUnits="userSpaceOnUse"><feOffset dy="3" input="SourceAlpha"/><feGaussianBlur stdDeviation="3" result="o"/><feFlood flood-color="#ffe8b9"/><feComposite operator="in" in2="o"/><feComposite in="SourceGraphic"/></filter></defs><circle cx="46.738" cy="46.738" r="46.738" transform="translate(0 66.097) rotate(-45)" fill="url(#a)"/><path d="M46.738,2A44.75,44.75,0,0,0,29.325,87.961,44.75,44.75,0,0,0,64.151,5.515,44.456,44.456,0,0,0,46.738,2m0-2A46.738,46.738,0,1,1,0,46.738,46.738,46.738,0,0,1,46.738,0Z" transform="translate(0 66.097) rotate(-45)" fill="#fff8ea"/><g transform="translate(32.079 38.586)"><g transform="matrix(1, 0, 0, 1, -32.08, -38.59)" filter="url(#b)"><path d="M-100.394-369.678a12.311,12.311,0,0,1-2.908,7.29,29.869,29.869,0,0,1-6.34,5.8c-2.516,1.823-5.054,3.611-7.575,5.427a.977.977,0,0,1-1.275.069c-3.587-2.558-7.268-4.995-10.647-7.83a17.424,17.424,0,0,1-5.793-7.941,9.74,9.74,0,0,1,7.833-12.564,8.46,8.46,0,0,1,7.882,3.219,12.68,12.68,0,0,1,1.016,1.346c.232.348.365.365.6,0a11.7,11.7,0,0,1,2.666-2.9,8.775,8.775,0,0,1,11.73,1.148A9.853,9.853,0,0,1-100.394-369.678Zm-2.264-.08a7.25,7.25,0,0,0-2.029-5.183c-2.36-2.563-6.2-3.3-9.1-.886a13.222,13.222,0,0,0-2.294,2.693,2.111,2.111,0,0,1-3.546.1c-.34-.424-.618-.9-.955-1.322a6.665,6.665,0,0,0-5.649-2.945c-.211.008-.5-.042-.589.152-.1.224.2.334.34.481a9.593,9.593,0,0,1,2.684,8.546,13.68,13.68,0,0,1-3.554,6.7c-.545.622-.559.614.064,1.116,2.906,2.336,5.981,4.445,9,6.625a.605.605,0,0,0,.827-.047c2.361-1.705,4.744-3.379,7.094-5.1a23.429,23.429,0,0,0,6.183-6.182A8.368,8.368,0,0,0-102.658-369.758Zm-23.207-.2a7.571,7.571,0,0,0-3.081-5.89.781.781,0,0,0-1.082-.011,7.567,7.567,0,0,0-2.825,8.106,13,13,0,0,0,3.108,5.13c.247.272.373.146.546-.052a17.7,17.7,0,0,0,2.068-2.809A8.85,8.85,0,0,0-125.865-369.958Z" transform="translate(195.13 445.36)" fill="#fff"/></g><g transform="matrix(1, 0, 0, 1, -32.08, -38.59)" filter="url(#d)"><path d="M-147.97-369.743a9.68,9.68,0,0,0,2.46,6.081,31.406,31.406,0,0,0,6.4,5.729c1.954,1.437,3.946,2.825,5.909,4.251a.625.625,0,0,0,.866.019c2.505-1.772,5.01-3.542,7.451-5.4.449-.341.763-.387,1.1.088a1.779,1.779,0,0,0,.288.285c1,.883.839.747-.1,1.454-2.757,2.084-5.605,4.043-8.419,6.047a1.047,1.047,0,0,1-1.376.077c-3.6-2.6-7.34-5.029-10.73-7.915a18.055,18.055,0,0,1-5.519-7.384,9.759,9.759,0,0,1,7.746-13.016c3.288-.443,5.846.935,7.935,3.363a14.767,14.767,0,0,1,.944,1.256c.2.3.323.3.529-.009a11.586,11.586,0,0,1,3.18-3.283,8.741,8.741,0,0,1,4.663-1.437c.172-.006.4-.031.465.153.061.164-.15.246-.266.338a9.248,9.248,0,0,0-1.32,1.228,4.25,4.25,0,0,1-1.5,1.143,8.177,8.177,0,0,0-3.366,3.135,2.582,2.582,0,0,1-1.71,1.378,2.076,2.076,0,0,1-2.176-.908,15.125,15.125,0,0,0-2.186-2.638,6.525,6.525,0,0,0-9.236.783A7.283,7.283,0,0,0-147.97-369.743Z" transform="translate(187.07 445.35)" fill="#fff"/></g><g transform="matrix(1, 0, 0, 1, -32.08, -38.59)" filter="url(#f)"><path d="M-107.649-384.69a11.683,11.683,0,0,1-11.674,11.669,11.782,11.782,0,0,1-11.69-11.641,11.7,11.7,0,0,1,11.69-11.721A11.606,11.606,0,0,1-107.649-384.69Zm-11.64-9.429a9.384,9.384,0,0,0-9.46,9.338,9.448,9.448,0,0,0,9.333,9.491,9.457,9.457,0,0,0,9.556-9.393A9.389,9.389,0,0,0-119.289-394.119Z" transform="translate(197.6 434.98)" fill="#fff"/></g><g transform="matrix(1, 0, 0, 1, -32.08, -38.59)" filter="url(#h)"><path d="M-147.179-384.716A11.658,11.658,0,0,1-135.3-396.391a11.709,11.709,0,0,1,11.472,11.763,11.646,11.646,0,0,1-11.649,11.594A11.613,11.613,0,0,1-147.179-384.716Zm11.724-9.4a9.335,9.335,0,0,0-9.5,9.412,9.409,9.409,0,0,0,9.635,9.421,9.449,9.449,0,0,0,9.244-9.582A9.391,9.391,0,0,0-135.455-394.117Z" transform="translate(188.8 434.98)" fill="#fff"/></g><g transform="matrix(1, 0, 0, 1, -32.08, -38.59)" filter="url(#j)"><path d="M-107.3-364.373c0-2.039.038-4.077-.008-6.114a10.219,10.219,0,0,0-8.3-10.008,12.354,12.354,0,0,0-2.781-.2c-.142,0-.352.067-.393-.138-.03-.146.147-.213.255-.287a12.965,12.965,0,0,0,1.76-1.431.982.982,0,0,1,.9-.265,12.348,12.348,0,0,1,10.7,10.789,13.845,13.845,0,0,1,.136,1.8q.019,6.2.006,12.405c0,.875-.39,1.358-1.079,1.378-.719.022-1.165-.468-1.177-1.351-.017-1.243-.006-2.486-.006-3.728v-2.854Z" transform="translate(204.52 443.49)" fill="#fff"/></g><g transform="matrix(1, 0, 0, 1, -32.08, -38.59)" filter="url(#l)"><path d="M-153.274-364.535c0-2.057-.006-4.115,0-6.172A12.455,12.455,0,0,1-142.8-382.767a1.606,1.606,0,0,1,1.65.517,7.451,7.451,0,0,0,1.317,1.051c.135.1.38.178.329.362-.067.235-.334.136-.51.132a11.183,11.183,0,0,0-3.623.432,10.053,10.053,0,0,0-7.235,8.107,9.194,9.194,0,0,0-.135,1.854q0,6.142,0,12.285a2.2,2.2,0,0,1-.12.86,1.031,1.031,0,0,1-1.076.719,1.019,1.019,0,0,1-1-.816,2.535,2.535,0,0,1-.066-.69q0-3.29,0-6.579Z" transform="translate(185.36 443.5)" fill="#fff"/></g><g transform="matrix(1, 0, 0, 1, -32.08, -38.59)" filter="url(#n)"><path d="M-125.53-379.658a12.331,12.331,0,0,0-2.151.149,2.9,2.9,0,0,1-2.009-.3,10.7,10.7,0,0,0-4.768-.885c-.18.006-.453.1-.524-.1s.211-.291.359-.393a14.521,14.521,0,0,0,1.671-1.359.839.839,0,0,1,.726-.279,12.584,12.584,0,0,1,6.584,2.861A.255.255,0,0,1-125.53-379.658Z" transform="translate(195.53 442.99)" fill="#fff"/></g></g></svg>