<svg xmlns="http://www.w3.org/2000/svg" xmlns:xlink="http://www.w3.org/1999/xlink" width="93.476" height="93.476" viewBox="0 0 93.476 93.476"><defs><linearGradient id="a" x1="0.5" x2="0.5" y2="1" gradientUnits="objectBoundingBox"><stop offset="0" stop-color="#efefef" stop-opacity="0.6"/><stop offset="1" stop-color="#efefef" stop-opacity="0.102"/></linearGradient></defs><circle cx="46.738" cy="46.738" r="46.738" transform="translate(0 0)" fill="url(#a)"/><path d="M46.738,2A44.75,44.75,0,0,0,29.325,87.961,44.75,44.75,0,0,0,64.151,5.515,44.456,44.456,0,0,0,46.738,2m0-2A46.738,46.738,0,1,1,0,46.738,46.738,46.738,0,0,1,46.738,0Z" transform="translate(0 0)" fill="#fff8ea"/><g transform="translate(12.719 20.548)"><path d="M183.413-340.032H152.965c-.887,0-.89,0-.89-.917q0-12.34,0-24.683a26.167,26.167,0,0,0-.814-4.9c-.46-2.447-.976-4.882-1.486-7.318-.107-.51-.028-.74.551-.858q14.078-2.873,28.147-5.792l23.777-4.914c2.713-.561,5.431-1.1,8.139-1.691.545-.119.713.055.812.547q1.561,7.769,3.146,15.531,1.352,6.663,2.708,13.326c.183.894.188.892-.678,1.08-1.655.36-1.655.36-1.655,2.036q0,8.847,0,17.693c0,.857,0,.86-.867.86Zm-.015-1.629h28.76c.964,0,.966,0,.966-.971v-25.9c0-.1-.008-.2,0-.3.041-.457-.133-.694-.617-.649-.2.02-.4,0-.6,0q-26.771,0-53.54.007c-1.322,0-2.647-.008-3.972.054-.7.033-.707.249-.707.768q.015,13.042.006,26.083c0,.907,0,.909.887.909Zm21.013-29.43c2.815,0,5.629-.016,8.442.012.583.007.671-.183.564-.708q-1.733-8.413-3.425-16.836c-.128-.636-.373-.711-.943-.59q-7.4,1.564-14.807,3.081-15.637,3.231-31.275,6.452-5.37,1.108-10.745,2.195c-.5.1-.708.244-.579.819.378,1.678.707,3.367,1.023,5.058a.542.542,0,0,0,.713.51c.5-.075.248-.443.208-.663-.267-1.433-.548-2.863-.859-4.287-.1-.441.013-.624.451-.713,2.245-.451,4.484-.925,6.728-1.388.154-.031.371-.1.454.044a2.169,2.169,0,0,1,.279,1.222c-.028.327-.4.293-.635.343-1.609.347-3.222.688-4.836,1.007-.473.093-.7.226-.548.8a26.192,26.192,0,0,1,.6,2.912c.089.6.361.745.922.744q7.327-.027,14.653,0c.582,0,.791-.178.888-.75a11.963,11.963,0,0,1,15.972-9.162,11.817,11.817,0,0,1,7.609,9.033c.188.856.159.865,1.011.865Q200.342-371.091,204.411-371.092Zm-24.277,0a.476.476,0,0,0-.063-.147,3.2,3.2,0,0,1,.548-4.489c.577-.433.788-.819.523-1.49-.071-.178-.2-.475.055-.61a1.9,1.9,0,0,1,1.147-.291c.371.059.306.492.347.765a.733.733,0,0,0,.8.709,4.892,4.892,0,0,1,1.538.26c.149.057.378.077.394.237a2.341,2.341,0,0,1-.4,1.185c-.13.288-.379.126-.583.075a3.3,3.3,0,0,0-2.733.255c-.937.606-1.062,2.027-.193,2.448a11.185,11.185,0,0,0,4.4,1.146c2.405.1,4.818.015,7.228.038.528,0,.637-.136.533-.665a10.438,10.438,0,0,0-12.606-8.2,10.455,10.455,0,0,0-7.886,8.271c-.078.494.057.593.507.59,2.029-.018,4.058-.008,6.087-.01C179.9-371.011,180.028-370.969,180.135-371.088Z" transform="translate(-149.74 391.141)" fill="#fff"/><path d="M213.86-339.782H152.965c-.5,0-.771,0-.957-.191s-.183-.468-.183-.976q0-3.3,0-6.59c0-5.93,0-12.062.006-18.092a15.711,15.711,0,0,0-.513-3.463c-.1-.454-.208-.923-.3-1.39-.422-2.24-.9-4.51-1.358-6.7l-.128-.608a1.026,1.026,0,0,1,.065-.783.979.979,0,0,1,.68-.371c8.335-1.7,16.807-3.45,25-5.142l3.147-.65,13.086-2.7,10.691-2.21q1.159-.24,2.32-.476c1.908-.391,3.882-.794,5.817-1.215a1.59,1.59,0,0,1,.339-.042c.614,0,.724.55.771.784.934,4.65,1.895,9.376,2.824,13.946l.322,1.585c.9,4.417,1.807,8.9,2.708,13.326l0,.015c.1.5.155.758.016.976s-.406.278-.887.383c-.747.162-1.157.251-1.309.438s-.151.6-.151,1.354q0,8.847,0,17.693c0,.482,0,.747-.183.928S214.345-339.782,213.86-339.782Zm-3.179-51.109a1.126,1.126,0,0,0-.232.03c-1.939.421-3.913.825-5.823,1.216q-1.16.237-2.319.476l-10.691,2.21-13.086,2.7-3.147.65c-8.193,1.692-16.664,3.441-25,5.142a.61.61,0,0,0-.363.156c-.041.062-.039.191.006.405l.128.608c.461,2.2.937,4.469,1.36,6.715.086.458.191.923.292,1.372a16.089,16.089,0,0,1,.525,3.574c-.008,6.03-.007,12.162-.006,18.092q0,3.3,0,6.59a2.2,2.2,0,0,0,.042.628,2.142,2.142,0,0,0,.6.039H213.86a2.157,2.157,0,0,0,.584-.037,2.239,2.239,0,0,0,.034-.572q0-8.847,0-17.693c0-.9,0-1.346.263-1.67s.706-.419,1.589-.611a2.093,2.093,0,0,0,.574-.164,2.208,2.208,0,0,0-.085-.606l0-.015c-.9-4.426-1.812-8.909-2.708-13.326l-.322-1.584c-.929-4.57-1.889-9.3-2.824-13.947C210.885-390.891,210.8-390.891,210.681-390.891Zm1.478,49.48H154.579c-.5,0-.769,0-.954-.19s-.182-.448-.182-.969v-5.217c0-6.839,0-13.911-.007-20.866,0-.606.064-.977.945-1.018,1.073-.05,2.144-.055,3.15-.055h.834c11.285-.006,22.5-.007,31.981-.007h21.559c.065,0,.13,0,.195,0s.121,0,.181,0c.078,0,.142,0,.2-.008s.094-.007.137-.007a.743.743,0,0,1,.575.219.883.883,0,0,1,.179.707,1.7,1.7,0,0,0,0,.174c0,.036,0,.072,0,.108v25.9c0,.553,0,.83-.194,1.025S212.709-341.411,212.158-341.411Zm-54.627-27.814c-1,0-2.064,0-3.126.054-.317.015-.4.068-.424.1a1.03,1.03,0,0,0-.044.419c.008,6.955.007,14.027.007,20.867v5.217a2.161,2.161,0,0,0,.041.621,2.128,2.128,0,0,0,.6.038h57.579a2.126,2.126,0,0,0,.667-.048,2.148,2.148,0,0,0,.049-.673v-25.9c0-.032,0-.063,0-.1a2.1,2.1,0,0,1,0-.229.468.468,0,0,0-.05-.327.3.3,0,0,0-.206-.057c-.028,0-.057,0-.089,0-.074.007-.154.011-.249.011-.065,0-.129,0-.194,0s-.121,0-.182,0H190.347c-9.481,0-20.7,0-31.981.007Zm31.209-1.51c-1.109,0-2.008-.016-2.828-.051a11.383,11.383,0,0,1-4.5-1.17,1.315,1.315,0,0,1-.724-1.148,1.961,1.961,0,0,1,.89-1.735,2.909,2.909,0,0,1,1.634-.469,5.4,5.4,0,0,1,1.293.181c.049.012.1.028.141.043a.836.836,0,0,0,.146.041l.01-.019c.042-.093.089-.184.134-.271a1.558,1.558,0,0,0,.244-.738c-.03-.012-.075-.025-.106-.034s-.088-.025-.132-.042a4.693,4.693,0,0,0-1.461-.244.975.975,0,0,1-1.034-.921c-.01-.067-.014-.135-.018-.2-.02-.308-.05-.343-.12-.354a.85.85,0,0,0-.133-.01,1.971,1.971,0,0,0-.858.275.063.063,0,0,0-.016.011c-.021.046.048.217.07.273l0,.012a1.369,1.369,0,0,1-.605,1.783,3.029,3.029,0,0,0-1.128,2.181,2.48,2.48,0,0,0,.609,1.934.472.472,0,0,1,.106.2c0,.008,0,.017.008.024l.062.146-.106.118a.5.5,0,0,1-.391.168c-.029,0-.058,0-.087,0l-.05,0H176.74c-.836,0-1.937,0-3.039.011h-.023a.777.777,0,0,1-.627-.2.82.82,0,0,1-.106-.676,10.086,10.086,0,0,1,2.718-5.378,10.867,10.867,0,0,1,5.357-3.1,10.54,10.54,0,0,1,2.439-.288,10.669,10.669,0,0,1,6.729,2.419,10.744,10.744,0,0,1,3.741,6.262.877.877,0,0,1-.084.742.827.827,0,0,1-.669.22h-.028c-.285,0-.582,0-.908,0-.582,0-1.175,0-1.748.008S189.324-370.735,188.74-370.735Zm-5.53-4.073a2.424,2.424,0,0,0-1.362.388,1.474,1.474,0,0,0-.663,1.285.833.833,0,0,0,.443.729,10.886,10.886,0,0,0,4.3,1.121c.814.034,1.706.05,2.807.05.582,0,1.175,0,1.748-.008s1.168-.008,1.752-.008c.328,0,.627,0,.913,0h.023c.237,0,.282-.037.283-.039s.031-.061-.021-.328a10.2,10.2,0,0,0-9.979-8.277,10.04,10.04,0,0,0-2.324.274,10.252,10.252,0,0,0-7.7,8.067.6.6,0,0,0-.008.272.575.575,0,0,0,.247.029h.019c1.1-.01,2.206-.011,3.043-.011h2.979a3.063,3.063,0,0,1-.576-2.123,3.535,3.535,0,0,1,1.326-2.542c.54-.405.643-.685.441-1.2l0-.011c-.074-.185-.271-.675.175-.911a2.425,2.425,0,0,1,1.093-.333,1.351,1.351,0,0,1,.211.016c.494.078.525.559.541.816,0,.059.007.114.014.159.055.361.187.477.565.5a5.115,5.115,0,0,1,1.615.276c.024.009.057.019.092.029.151.044.432.125.461.416a1.871,1.871,0,0,1-.294,1.066c-.044.086-.086.166-.123.247a.486.486,0,0,1-.455.313.982.982,0,0,1-.315-.067c-.037-.012-.072-.024-.1-.031A4.922,4.922,0,0,0,183.21-374.808Zm-12.4,3.98h-.016c-2.357-.012-4.755-.018-7.33-.018-2.314,0-4.708,0-7.32.014h-.011a1,1,0,0,1-1.16-.957,25.989,25.989,0,0,0-.591-2.885.941.941,0,0,1,.042-.736.988.988,0,0,1,.7-.369c1.7-.336,3.4-.7,4.832-1.006.059-.012.119-.02.177-.027.257-.033.259-.056.262-.092a1.916,1.916,0,0,0-.227-1.04,1.082,1.082,0,0,0-.142.026l-.065.014-2.274.472c-1.459.3-2.968.617-4.454.916-.19.038-.245.085-.262.11s-.038.1.006.3c.276,1.262.549,2.627.86,4.294a1.064,1.064,0,0,0,.033.113.689.689,0,0,1,0,.59.6.6,0,0,1-.448.254,1.41,1.41,0,0,1-.21.017.761.761,0,0,1-.786-.728c-.279-1.493-.618-3.261-1.021-5.049a.98.98,0,0,1,.065-.745,1.029,1.029,0,0,1,.709-.373c3.536-.709,7.1-1.443,10.744-2.195l1.671-.345c9.7-2,19.736-4.069,29.6-6.108l1.042-.215c4.513-.932,9.179-1.9,13.763-2.865a2.056,2.056,0,0,1,.422-.054c.575,0,.739.448.818.839,1.168,5.868,2.38,11.767,3.424,16.835a.908.908,0,0,1-.083.774.867.867,0,0,1-.7.235h-.032c-1.121-.011-2.355-.016-3.884-.016l-2.277,0q-5.208.008-10.418,0c-.452,0-.7,0-.9-.154s-.246-.391-.34-.821l-.019-.087a11.619,11.619,0,0,0-7.455-8.853,11.235,11.235,0,0,0-4.064-.755,11.674,11.674,0,0,0-11.571,9.725A.977.977,0,0,1,170.806-370.828Zm-7.346-.518c2.576,0,4.975.006,7.333.018h.013c.445,0,.55-.091.627-.542a12.038,12.038,0,0,1,1.532-4.185,12.041,12.041,0,0,1,2.779-3.2,12.376,12.376,0,0,1,7.753-2.759,11.734,11.734,0,0,1,4.244.789,12.093,12.093,0,0,1,7.763,9.212l.019.087a1.591,1.591,0,0,0,.161.535,1.722,1.722,0,0,0,.587.046q5.209,0,10.417,0l2.278,0c1.53,0,2.766.005,3.889.016h.026c.265,0,.308-.049.309-.051s.04-.067-.019-.357c-1.044-5.069-2.256-10.968-3.425-16.838-.088-.437-.2-.437-.328-.437a1.594,1.594,0,0,0-.318.043c-4.585.969-9.252,1.933-13.766,2.866l-1.042.215c-9.867,2.039-19.9,4.107-29.6,6.108l-1.671.345c-3.645.752-7.21,1.486-10.747,2.2-.142.029-.336.076-.388.155-.026.041-.047.137,0,.363.4,1.8.745,3.569,1.024,5.067.055.3.157.32.294.32a.928.928,0,0,0,.136-.011.354.354,0,0,0,.092-.024.942.942,0,0,0-.045-.17,1.385,1.385,0,0,1-.049-.177c-.31-1.661-.582-3.021-.857-4.278a.89.89,0,0,1,.064-.685.871.871,0,0,1,.581-.326c1.485-.3,2.993-.612,4.451-.915l2.276-.472.056-.012a1.236,1.236,0,0,1,.267-.038.432.432,0,0,1,.4.217,2.432,2.432,0,0,1,.31,1.366c-.039.463-.483.519-.7.546-.05.006-.1.012-.136.02-1.436.309-3.134.671-4.839,1.007-.138.027-.326.072-.372.144-.019.031-.043.117.017.343a26.491,26.491,0,0,1,.6,2.94c.064.431.188.53.665.53h.009C158.75-371.341,161.145-371.346,163.46-371.346Z" transform="translate(-149.74 391.141)" fill="#fff"/><path d="M187.425-377.325c1.125,0,2.25.013,3.375,0,.444-.008.606.17.6.6-.01,2.07-.018,4.14,0,6.209.006.668-.415.6-.845.613-.451.013-.783-.029-.773-.624.023-1.508-.015-3.015.016-4.521.013-.564-.141-.777-.739-.764-1.667.037-3.336-.008-5,.023-.574.011-.671-.259-.661-.733.008-.454,0-.835.647-.812C185.174-377.3,186.3-377.325,187.425-377.325Z" transform="translate(-129.188 400.162)" fill="#fff"/><path d="M184-377.586h.063c.4.013.827.019,1.351.019.335,0,.676,0,1.006,0s.673,0,1.009,0l1,0,1,0c.531,0,.967,0,1.371-.009h.032a.825.825,0,0,1,.616.208.886.886,0,0,1,.208.648c-.01,2.206-.017,4.2,0,6.2.008.852-.6.859-.966.863l-.122,0-.119,0a.939.939,0,0,1-.7-.22.876.876,0,0,1-.21-.66c.011-.7.008-1.418.005-2.11,0-.79-.006-1.608.011-2.412a.652.652,0,0,0-.078-.428.6.6,0,0,0-.406-.081c-.484.011-1,.016-1.658.016l-.954,0-.952,0c-.562,0-1.02,0-1.44.011h-.039a.881.881,0,0,1-.662-.223,1.027,1.027,0,0,1-.215-.765v-.035C183.161-376.97,183.171-377.586,184-377.586Zm1.414.52c-.529,0-.964-.006-1.368-.02H184c-.315,0-.334.06-.342.531v.036a.68.68,0,0,0,.072.406.481.481,0,0,0,.3.073h.029c.424-.008.884-.011,1.449-.011l.954,0,.952,0c.658,0,1.166,0,1.647-.016h.056a.984.984,0,0,1,.719.232,1.054,1.054,0,0,1,.22.788c-.016.8-.013,1.612-.011,2.4,0,.694.005,1.412-.006,2.12a.448.448,0,0,0,.067.3.574.574,0,0,0,.345.071l.1,0,.13,0c.393,0,.475-.006.471-.358-.022-2.012-.015-4,0-6.213a.449.449,0,0,0-.063-.293.42.42,0,0,0-.261-.061h-.024c-.407.006-.845.009-1.379.009l-1,0-1,0c-.335,0-.676,0-1.006,0S185.747-377.065,185.41-377.065Z" transform="translate(-129.188 400.162)" fill="#fff"/><path d="M187.4-358.517c-1.123,0-2.248-.028-3.372.011-.619.021-.618-.339-.619-.77s.008-.785.618-.775c1.705.028,3.413,0,5.118.018.494.006.671-.154.663-.655-.024-1.5-.013-3.01,0-4.515,0-.666.084-.705.859-.726.52-.016.76.131.752.71-.029,2.007-.024,4.014,0,6.021.006.527-.175.705-.7.691C189.6-358.538,188.5-358.517,187.4-358.517Z" transform="translate(-129.186 407.67)" fill="#fff"/><path d="M183.974-358.254c-.815,0-.817-.61-.819-1.014v-.006a1.079,1.079,0,0,1,.213-.813.844.844,0,0,1,.63-.213h.028c.506.008,1.046.012,1.751.012l1.827,0c.605,0,1.094,0,1.54.009h.024a.5.5,0,0,0,.32-.069.517.517,0,0,0,.065-.333c-.022-1.38-.015-2.782-.007-4.139l0-.382c0-.346.02-.625.232-.8a1.428,1.428,0,0,1,.87-.177h.079a.963.963,0,0,1,.7.229.969.969,0,0,1,.226.735c-.026,1.807-.027,3.719,0,6.015a1,1,0,0,1-.219.723.922.922,0,0,1-.674.221H190.7c-.408-.011-.85-.017-1.393-.017-.318,0-.636,0-.954,0s-.638,0-.957,0-.665,0-.989,0-.658,0-.986,0c-.54,0-.981.007-1.389.021ZM184-359.8a.419.419,0,0,0-.275.065c-.071.071-.069.286-.068.458v.007c0,.472.029.516.319.516h.042c.413-.014.86-.021,1.406-.021.33,0,.665,0,.989,0s.657,0,.985,0,.636,0,.954,0,.638,0,.956,0c.548,0,.995.005,1.407.017h.05a.476.476,0,0,0,.318-.072.557.557,0,0,0,.075-.366c-.024-2.3-.023-4.216,0-6.028a.6.6,0,0,0-.083-.377.509.509,0,0,0-.347-.081h-.065a1.777,1.777,0,0,0-.569.065c-.031.025-.047.164-.048.412l0,.382c-.008,1.354-.015,2.753.007,4.128a.947.947,0,0,1-.209.691.929.929,0,0,1-.676.218h-.031c-.443-.006-.93-.009-1.533-.009l-1.827,0c-.708,0-1.25,0-1.759-.012Z" transform="translate(-129.186 407.67)" fill="#fff"/><path d="M189.59-381.953c-.409.071-.4-.259-.446-.494-.311-1.472-.624-2.944-.9-4.421-.1-.511-.238-.718-.827-.58-1.641.379-3.3.666-4.948,1.033-.473.105-.653-.019-.746-.472-.2-.992-.212-.984.762-1.175,2.046-.4,4.093-.8,6.134-1.235.53-.113.754,0,.859.546.379,1.989.806,3.97,1.208,5.956C190.821-382.135,190.579-381.953,189.59-381.953Z" transform="translate(-130.299 392.26)" fill="#fff"/><path d="M189.486-381.693c-.47,0-.54-.431-.57-.615,0-.03-.01-.06-.016-.089l-.041-.192c-.293-1.386-.6-2.818-.862-4.234-.078-.418-.153-.418-.276-.418a1.136,1.136,0,0,0-.248.035c-.889.206-1.8.387-2.674.562-.747.149-1.52.3-2.276.471a1.5,1.5,0,0,1-.325.041.741.741,0,0,1-.72-.707l-.007-.033c-.111-.545-.167-.818-.015-1.047s.423-.281.963-.388l.713-.14c1.783-.35,3.627-.712,5.435-1.1a1.794,1.794,0,0,1,.371-.046c.569,0,.721.451.786.79.249,1.308.524,2.635.789,3.918.138.667.28,1.356.418,2.035a.955.955,0,0,1-.112.813c-.221.27-.643.328-1.209.329A.838.838,0,0,1,189.486-381.693Zm-.029-.5a.291.291,0,0,0,.09,0l.021,0h.022c.48,0,.763-.049.842-.146.048-.058.051-.192.009-.4-.137-.678-.28-1.367-.418-2.033-.266-1.285-.541-2.614-.791-3.926-.073-.384-.171-.384-.3-.384a1.315,1.315,0,0,0-.266.035c-1.812.387-3.658.749-5.443,1.1l-.713.14a2.16,2.16,0,0,0-.643.174,2.2,2.2,0,0,0,.088.67l.007.033c.063.307.133.307.23.307a1.038,1.038,0,0,0,.216-.029c.761-.169,1.537-.324,2.287-.474.874-.174,1.778-.355,2.659-.558a1.6,1.6,0,0,1,.362-.048c.613,0,.713.537.767.826.265,1.41.567,2.839.859,4.222l.041.193c.007.036.014.073.02.111A.713.713,0,0,0,189.457-382.2Z" transform="translate(-130.299 392.26)" fill="#fff"/><path d="M187.111-364.669a11.967,11.967,0,0,1-11.977,11.9,12.115,12.115,0,0,1-11.984-12.071,11.962,11.962,0,0,1,12.022-11.9A12.016,12.016,0,0,1,187.111-364.669Zm-1.632-.088a10.342,10.342,0,0,0-10.315-10.45,10.351,10.351,0,0,0-10.414,10.349A10.3,10.3,0,0,0,175.039-354.4,10.272,10.272,0,0,0,185.478-364.757Z" transform="translate(-142.077 400.952)" fill="#fff"/><path d="M175.151-352.523h-.018a11.941,11.941,0,0,1-4.741-.984,12.366,12.366,0,0,1-3.893-2.659,12.423,12.423,0,0,1-2.635-3.917,12.07,12.07,0,0,1-.964-4.76,12.1,12.1,0,0,1,3.574-8.57,12.072,12.072,0,0,1,8.595-3.579h.105a12.22,12.22,0,0,1,8.632,3.631,12.236,12.236,0,0,1,3.554,8.693A12.206,12.206,0,0,1,175.151-352.523Zm-.082-23.971a11.691,11.691,0,0,0-11.669,11.65,11.727,11.727,0,0,0,3.454,8.325,11.629,11.629,0,0,0,8.28,3.5h.018a11.705,11.705,0,0,0,11.709-11.646,11.828,11.828,0,0,0-11.69-11.824Zm.015,22.345h-.046a10.493,10.493,0,0,1-7.468-3.109,10.633,10.633,0,0,1-3.072-7.6,10.6,10.6,0,0,1,3.122-7.511,10.578,10.578,0,0,1,7.518-3.088h.025a10.48,10.48,0,0,1,7.493,3.133,10.657,10.657,0,0,1,3.072,7.568A10.529,10.529,0,0,1,175.084-354.149Zm.054-20.807a10.046,10.046,0,0,0-10.14,10.1,10.137,10.137,0,0,0,2.927,7.245,10,10,0,0,0,7.115,2.961h.043a10.034,10.034,0,0,0,10.145-10.108,10.16,10.16,0,0,0-2.927-7.215,9.983,9.983,0,0,0-7.138-2.984Z" transform="translate(-142.077 400.952)" fill="#fff"/><path d="M171.715-358.653c-.5.1-.627-.206-.631-.7-.006-1.188-.02-1.195-1.161-1.449a7.515,7.515,0,0,1-1.2-.4.563.563,0,0,1-.378-.84c.3-.8.272-.812,1.055-.475a5,5,0,0,0,2.469.417,1.945,1.945,0,0,0,1.785-1.384,1.879,1.879,0,0,0-.858-1.971c-.874-.627-1.942-.862-2.85-1.431a2.982,2.982,0,0,1-1.06-4.4,3.183,3.183,0,0,1,1.8-1.242.618.618,0,0,0,.516-.741c-.015-.2,0-.4,0-.6.01-.738.075-.778.791-.78.459,0,.576.2.584.623.02,1.161.032,1.159,1.149,1.42a4.891,4.891,0,0,1,.522.144c.851.3.858.37.556,1.2-.178.5-.407.52-.853.331a3.909,3.909,0,0,0-2.646-.271,1.457,1.457,0,0,0-1.128,1.133,1.481,1.481,0,0,0,.574,1.551,5.606,5.606,0,0,0,1.368.754,11.183,11.183,0,0,1,1.634.768,3.3,3.3,0,0,1,1.7,3.4,3.141,3.141,0,0,1-2.33,2.724c-.553.183-.752.441-.674.984a3.759,3.759,0,0,1,0,.541C172.444-358.7,172.4-358.655,171.715-358.653Z" transform="translate(-138.89 402.25)" fill="#fff"/><path d="M171.544-358.385c-.467,0-.705-.325-.71-.965,0-.527-.009-.807-.1-.919s-.384-.18-.866-.287a7.642,7.642,0,0,1-1.237-.416.8.8,0,0,1-.517-1.158l.027-.072c.179-.484.287-.777.65-.777a1.979,1.979,0,0,1,.7.227l.008,0a4.822,4.822,0,0,0,1.931.416c.138,0,.278-.006.416-.019a1.707,1.707,0,0,0,1.566-1.2,1.631,1.631,0,0,0-.761-1.7,7.5,7.5,0,0,0-1.486-.762,9.43,9.43,0,0,1-1.351-.661,3.583,3.583,0,0,1-1.685-2.259,3.2,3.2,0,0,1,.551-2.492,3.421,3.421,0,0,1,1.937-1.341c.286-.084.359-.188.337-.482-.012-.159-.008-.314-.005-.464,0-.053,0-.106,0-.16.005-.4.022-.667.207-.844s.433-.183.833-.184h.011c.723,0,.816.5.823.868.009.512.017.783.106.893s.371.177.837.285l.013,0a5.129,5.129,0,0,1,.548.152c.449.157.73.271.85.522s.014.574-.141,1c-.093.26-.266.605-.68.605a1.305,1.305,0,0,1-.506-.13,4.2,4.2,0,0,0-1.646-.375,3.059,3.059,0,0,0-.834.115,1.211,1.211,0,0,0-.951.942,1.235,1.235,0,0,0,.482,1.3,5.32,5.32,0,0,0,1.308.719l.023.009a11.292,11.292,0,0,1,1.648.778,3.569,3.569,0,0,1,1.817,3.642,3.378,3.378,0,0,1-2.5,2.933c-.456.151-.564.3-.506.711a2.417,2.417,0,0,1,.01.428c0,.05,0,.1,0,.151a1.029,1.029,0,0,1-.2.769c-.166.155-.4.17-.772.171A1.149,1.149,0,0,1,171.544-358.385Zm-2.743-4.094a2.6,2.6,0,0,0-.191.45l-.027.072c-.11.3-.063.4.238.521a7.2,7.2,0,0,0,1.157.391c.608.136.943.21,1.145.461s.207.6.21,1.23c0,.468.118.468.21.468a.677.677,0,0,0,.124-.013l.023,0h.023a1.672,1.672,0,0,0,.455-.037,1.644,1.644,0,0,0,.037-.41c0-.053,0-.108,0-.163a2.017,2.017,0,0,0-.006-.34,1.028,1.028,0,0,1,.843-1.256,2.873,2.873,0,0,0,2.16-2.514,3.062,3.062,0,0,0-1.58-3.16,10.75,10.75,0,0,0-1.577-.742l-.022-.009a5.8,5.8,0,0,1-1.428-.788,1.723,1.723,0,0,1-.665-1.8,1.7,1.7,0,0,1,1.305-1.324,3.56,3.56,0,0,1,.97-.134,4.688,4.688,0,0,1,1.842.415.9.9,0,0,0,.31.09c.039,0,.111,0,.209-.275a1.719,1.719,0,0,0,.16-.619c-.038-.081-.38-.2-.564-.265a4.7,4.7,0,0,0-.5-.137l-.014,0c-.609-.142-.914-.214-1.112-.458s-.207-.586-.217-1.2c-.006-.305-.036-.377-.324-.377H172a1.528,1.528,0,0,0-.489.044,1.521,1.521,0,0,0-.053.489c0,.054,0,.11,0,.165,0,.145-.006.282,0,.417a.861.861,0,0,1-.694,1,2.936,2.936,0,0,0-1.665,1.142,2.707,2.707,0,0,0-.474,2.109,3.091,3.091,0,0,0,1.461,1.937,8.92,8.92,0,0,0,1.281.624,7.988,7.988,0,0,1,1.582.816,2.116,2.116,0,0,1,.954,2.238,2.2,2.2,0,0,1-2,1.57,5.289,5.289,0,0,1-2.59-.436l-.008,0A2.649,2.649,0,0,0,168.8-362.479Z" transform="translate(-138.89 402.25)" fill="#fff"/><path d="M156.74-377.325c1.125,0,2.252.024,3.377-.008.61-.018.623.337.621.773s-.006.782-.623.77c-1.689-.032-3.379.006-5.066-.021-.52-.008-.707.139-.7.679.031,1.506-.016,3.015.023,4.523.016.642-.3.718-.814.71-.5,0-.843-.032-.832-.7.034-2.01.028-4.02,0-6.031-.008-.574.22-.723.751-.708C154.568-377.3,155.654-377.325,156.74-377.325Z" transform="translate(-147.882 400.585)" fill="#fff"/><path d="M153.416-377.584h.074c.39.01.81.015,1.324.015.32,0,.641,0,.961,0q.989-.006,1.979,0c.337,0,.675,0,1.012,0,.519,0,.946-.005,1.342-.017h.05a.821.821,0,0,1,.612.209,1.087,1.087,0,0,1,.216.816c0,.407-.008,1.019-.843,1.019h-.034c-.494-.01-1.02-.014-1.7-.014-.613,0-1.226,0-1.839,0s-1.082,0-1.523-.01h-.036a.53.53,0,0,0-.34.07c-.033.034-.071.122-.066.354.015.719.012,1.448.009,2.154,0,.777-.006,1.58.014,2.368a.965.965,0,0,1-.219.73,1.032,1.032,0,0,1-.778.237h-.07a1.151,1.151,0,0,1-.86-.238.952.952,0,0,1-.218-.711c.031-1.815.031-3.728,0-6.023a.968.968,0,0,1,.224-.734A.974.974,0,0,1,153.416-377.584Zm1.4.516c-.518,0-.944,0-1.338-.016h-.06a.522.522,0,0,0-.353.08.568.568,0,0,0-.08.376c.03,2.3.029,4.219,0,6.038a.532.532,0,0,0,.076.354.863.863,0,0,0,.508.087h.064c.233,0,.363-.026.42-.086a.579.579,0,0,0,.078-.369c-.021-.8-.017-1.6-.014-2.383,0-.7.006-1.429-.009-2.141a.963.963,0,0,1,.209-.714.945.945,0,0,1,.7-.22h.043c.439.007.92.01,1.515.01.613,0,1.226,0,1.839,0,.687,0,1.215,0,1.713.014h.025c.32,0,.34-.059.343-.522,0-.173,0-.389-.07-.46a.436.436,0,0,0-.294-.061c-.4.012-.833.017-1.357.017-.339,0-.677,0-1.016,0q-.987-.006-1.973,0C155.457-377.07,155.136-377.068,154.814-377.068Z" transform="translate(-147.882 400.585)" fill="#fff"/><path d="M156.741-358.518c-1.125,0-2.25-.016-3.375.008-.477.01-.632-.175-.629-.636.013-2.049.023-4.1,0-6.147-.008-.652.378-.634.825-.634s.83-.008.817.64c-.034,1.467-.011,2.933-.01,4.4,0,.843,0,.843.871.845,1.607,0,3.215.024,4.821-.013.616-.013.684.29.684.778s-.068.8-.686.772C158.952-358.549,157.845-358.518,156.741-358.518Z" transform="translate(-147.881 407.671)" fill="#fff"/><path d="M160.121-358.254l-.076,0c-.4-.016-.834-.023-1.366-.023-.322,0-.65,0-.967.005s-.647.005-.971.005l-.964,0-.962,0c-.563,0-1.022,0-1.444.013h-.04a.864.864,0,0,1-.632-.211.932.932,0,0,1-.212-.677c.013-2.073.023-4.1,0-6.142a.889.889,0,0,1,.213-.667,1.056,1.056,0,0,1,.793-.22h.147a1.039,1.039,0,0,1,.779.222.891.891,0,0,1,.21.673c-.025,1.066-.019,2.151-.014,3.2q0,.6,0,1.2a2.167,2.167,0,0,0,.034.558,2.3,2.3,0,0,0,.587.036q.682,0,1.365,0t1.364,0c.815,0,1.479-.007,2.087-.021h.043c.9,0,.9.669.9,1.029a1.094,1.094,0,0,1-.227.806A.863.863,0,0,1,160.121-358.254Zm-1.442-.525c.538,0,.978.008,1.385.024h.056a.455.455,0,0,0,.289-.07.77.77,0,0,0,.081-.452c0-.46-.052-.529-.4-.529h-.032c-.612.014-1.279.021-2.1.021q-.683,0-1.366,0t-1.363,0c-.5,0-.754,0-.935-.177s-.186-.442-.186-.917q0-.6,0-1.193c-.005-1.052-.011-2.14.014-3.212a.472.472,0,0,0-.067-.312.717.717,0,0,0-.422-.072h-.147c-.163,0-.367,0-.437.071a.47.47,0,0,0-.069.309c.028,2.043.018,4.076,0,6.152a.5.5,0,0,0,.067.321.45.45,0,0,0,.278.063h.03c.425-.009.887-.014,1.454-.014l.964,0,.962,0c.322,0,.65,0,.967-.005S158.355-358.779,158.679-358.779Z" transform="translate(-147.881 407.671)" fill="#fff"/></g></svg>