<svg xmlns="http://www.w3.org/2000/svg" width="35.115" height="35" viewBox="0 0 35.115 35"><g transform="translate(0 0)"><path d="M94.025,369.355c-4.579,0-8.323.009-12.067-.006a7.259,7.259,0,0,1-2.92-.419,5.307,5.307,0,0,1-3.369-5.1c-.052-2.133-.012-4.269-.011-6.4a2.661,2.661,0,0,1,.037-.369,1.9,1.9,0,0,1,1.858-1.826,1.864,1.864,0,0,1,1.814,1.968c.04,1.979.014,3.96.019,5.94a9.239,9.239,0,0,0,.026,1.02,1.53,1.53,0,0,0,1.524,1.453c.246.02.495.015.742.015q11.509,0,23.018,0c1.854,0,2.289-.44,2.293-2.3q.006-2.831,0-5.661a3.061,3.061,0,0,1,.178-1.277,1.8,1.8,0,0,1,3.425.215,2.349,2.349,0,0,1,.107.64,67.82,67.82,0,0,1-.1,7.509,5.1,5.1,0,0,1-4.613,4.484C101.729,369.535,97.456,369.26,94.025,369.355Z" transform="translate(-75.644 -334.379)" fill="#fff"/><path d="M122.123,261.129V259.31q0-6.915,0-13.829a7.866,7.866,0,0,1,.027-1.019,1.762,1.762,0,0,1,1.794-1.546,1.741,1.741,0,0,1,1.786,1.551,15.484,15.484,0,0,1,.03,1.669q0,6.868,0,13.736v1.013c.412.042.535-.259.715-.437q2.342-2.318,4.663-4.656a1.982,1.982,0,0,1,1.73-.712,1.777,1.777,0,0,1,1.459,1.15,1.646,1.646,0,0,1-.383,1.886q-4.377,4.417-8.794,8.794a1.672,1.672,0,0,1-2.431-.008q-4.393-4.335-8.729-8.727a1.753,1.753,0,0,1,.03-2.643,1.8,1.8,0,0,1,2.586.14c1.551,1.511,3.068,3.057,4.6,4.587C121.448,260.5,121.7,260.723,122.123,261.129Z" transform="translate(-106.396 -242.916)" fill="#fff"/></g></svg>