<svg xmlns="http://www.w3.org/2000/svg" xmlns:xlink="http://www.w3.org/1999/xlink" width="200" height="200" viewBox="0 0 200 200">
<defs>
  <linearGradient id="a" x1="0.5" x2="0.5" y2="1" gradientUnits="objectBoundingBox">
  <stop offset="0" stop-color="#efefef" stop-opacity="0.6"/>
  <stop offset="1" stop-color="#efefef" stop-opacity="0.102"/></linearGradient>
</defs>
<g transform="translate(46.492)"><circle cx="100" cy="100" r="100" transform="translate(-46.493)" fill="url(#a)"/><path d="M100,4A96.731,96.731,0,0,0,80.648,5.95a95.452,95.452,0,0,0-34.32,14.442A96.292,96.292,0,0,0,11.542,62.634,95.489,95.489,0,0,0,5.95,80.648a96.975,96.975,0,0,0,0,38.7,95.452,95.452,0,0,0,14.442,34.32,96.292,96.292,0,0,0,42.241,34.786,95.489,95.489,0,0,0,18.015,5.592,96.975,96.975,0,0,0,38.7,0,95.452,95.452,0,0,0,34.32-14.442,96.292,96.292,0,0,0,34.786-42.241,95.49,95.49,0,0,0,5.592-18.015,96.975,96.975,0,0,0,0-38.7,95.452,95.452,0,0,0-14.442-34.32,96.292,96.292,0,0,0-42.241-34.786A95.49,95.49,0,0,0,119.352,5.95,96.731,96.731,0,0,0,100,4m0-4A100,100,0,1,1,0,100,100,100,0,0,1,100,0Z" transform="translate(-46.493)" fill="#fff"/><g transform="translate(-18.985 46.794)"><path d="M374.881-271.861c-1.07-4.013-3.682-6.986-6.351-9.884a141.654,141.654,0,0,0-16.211-14.578c-10.191-8.1-20.876-15.536-31.676-22.826-5.141-3.47-8.783-8.327-12.039-13.474a35.108,35.108,0,0,1-5.789-21.07c.818-14.336,6.553-26.168,19.1-34.193a31.563,31.563,0,0,1,15.1-4.52,40.6,40.6,0,0,1,24.734,5.783,53.449,53.449,0,0,1,12.288,11.119c.843.99,1.027.77,1.747-.05,6.153-7.007,12.947-13.2,22.432-15.49,10.378-2.5,20.552-2.48,30.012,3.26,7.569,4.587,12.436,11.353,15.674,19.36a42.917,42.917,0,0,1,3.109,16.234,35.81,35.81,0,0,1-6.243,20.023c-.526.791-.9.848-1.416.014a8.231,8.231,0,0,0-1.092-1.331c-1.47-1.508-1.488-1.5-.407-3.4,5.18-9.05,5.152-18.5,1.934-28.063-2.752-8.188-7.615-14.876-15.314-19.328a27.652,27.652,0,0,0-10.53-3.253,37.01,37.01,0,0,0-20.934,3.565,22.857,22.857,0,0,0-5.324,3.512c-2.536,2.224-5.062,4.452-7.371,6.911a6.649,6.649,0,0,0-1.127,1.625,4.689,4.689,0,0,1-4.377,2.774,4.787,4.787,0,0,1-4.449-2.878c-1-1.958-2.785-3.292-4.3-4.836a34.964,34.964,0,0,0-17.731-10.04,36.786,36.786,0,0,0-17.494.291c-6.07,1.582-10.793,5.2-14.647,9.934a38.461,38.461,0,0,0-8.426,22.131c-.6,8.408,2.183,15.816,7.086,22.592a41.85,41.85,0,0,0,11.168,10.661,358.939,358.939,0,0,1,35.275,26,95.435,95.435,0,0,1,12.659,12.318c.721.876,1.2.926,1.931-.014a51.849,51.849,0,0,1,5.364-5.708c.212-.2.407-.557.76-.426.371.135.249.529.241.812a12.224,12.224,0,0,0,.508,4.3c.191.553-.151.9-.49,1.27-1.164,1.277-2.345,2.54-3.444,3.871A19.472,19.472,0,0,0,374.881-271.861Z" transform="translate(-302.76 392.633)" fill="#fff"/><path d="M374.872-270.926l-.232-.871c-1.022-3.835-3.455-6.7-6.293-9.779a143.216,143.216,0,0,0-16.183-14.551c-10.561-8.4-21.458-15.927-31.66-22.815-5.444-3.675-9.177-8.911-12.111-13.548a35.384,35.384,0,0,1-5.828-21.218,52.873,52.873,0,0,1,1.573-10.311,41.669,41.669,0,0,1,3.608-9.257,38.431,38.431,0,0,1,5.823-8.07,43.2,43.2,0,0,1,8.208-6.752c4.121-2.638,9.1-4.129,15.219-4.559,1.147-.081,2.3-.121,3.417-.121a40.211,40.211,0,0,1,21.466,5.941c4.111,2.54,7.919,5.985,12.347,11.169.12.141.485.57.676.57.147,0,.382-.268.681-.608l.012-.014a64.216,64.216,0,0,1,10.005-9.55,34.3,34.3,0,0,1,12.556-6.018,52.02,52.02,0,0,1,12.267-1.595,36,36,0,0,1,9.118,1.132A33.236,33.236,0,0,1,428.356-388c7.04,4.267,12.2,10.639,15.776,19.48a43.23,43.23,0,0,1,3.127,16.329,36.145,36.145,0,0,1-6.285,20.161c-.226.339-.536.729-.935.729s-.694-.385-.9-.721a8.13,8.13,0,0,0-1.058-1.288l-.032-.033c-.759-.779-1.141-1.17-1.2-1.677s.242-1.033.786-1.984c4.783-8.356,5.409-17.469,1.914-27.859-2.879-8.565-7.994-15.022-15.2-19.191a27.156,27.156,0,0,0-10.436-3.222,35.456,35.456,0,0,0-4.532-.294,37.941,37.941,0,0,0-16.263,3.837,22.452,22.452,0,0,0-5.266,3.474c-2.337,2.05-4.986,4.374-7.353,6.894a6.38,6.38,0,0,0-1.086,1.565,4.955,4.955,0,0,1-4.6,2.913h-.01a5.055,5.055,0,0,1-4.662-3.013,14,14,0,0,0-3.06-3.619c-.4-.374-.806-.76-1.194-1.155a34.477,34.477,0,0,0-17.607-9.971,37.692,37.692,0,0,0-8.141-.908,36.635,36.635,0,0,0-9.235,1.2c-5.547,1.446-10.3,4.668-14.517,9.85a38.366,38.366,0,0,0-8.371,21.991c-.556,7.776,1.746,15.113,7.039,22.428a41.505,41.505,0,0,0,11.1,10.6,357.071,357.071,0,0,1,35.3,26.016,96.042,96.042,0,0,1,12.691,12.351c.327.4.574.582.778.582s.454-.193.762-.591a52.363,52.363,0,0,1,5.39-5.737c.036-.035.075-.078.117-.124a.928.928,0,0,1,.667-.4.676.676,0,0,1,.236.044.757.757,0,0,1,.415.906c-.005.054-.01.1-.011.148a12.061,12.061,0,0,0,.494,4.212,1.384,1.384,0,0,1-.5,1.476l-.039.043-.612.67c-.945,1.032-1.921,2.1-2.824,3.192a19.115,19.115,0,0,0-3.894,6.906Zm-34.46-121.352c-1.108,0-2.246.04-3.382.12-6.034.423-10.936,1.889-14.984,4.481-11.737,7.509-18.123,18.947-18.982,34a34.894,34.894,0,0,0,5.751,20.922c2.906,4.593,6.6,9.778,11.968,13.4,10.211,6.893,21.118,14.431,31.692,22.838a143.668,143.668,0,0,1,16.239,14.6c2.689,2.919,5.02,5.648,6.176,9.2a20.428,20.428,0,0,1,3.74-6.3c.911-1.1,1.892-2.175,2.841-3.211l.611-.669.04-.044c.341-.374.527-.6.4-.976A12.508,12.508,0,0,1,382-288.3c0-.062.007-.123.013-.183.028-.3.008-.354-.09-.39a.183.183,0,0,0-.063-.013c-.087,0-.192.118-.294.232-.046.052-.094.1-.145.154a51.938,51.938,0,0,0-5.339,5.681c-.42.543-.777.785-1.157.785a1.7,1.7,0,0,1-1.165-.765,95.6,95.6,0,0,0-12.627-12.285,356.573,356.573,0,0,0-35.251-25.98,42,42,0,0,1-11.233-10.724,39.623,39.623,0,0,1-5.642-10.753,31.12,31.12,0,0,1-1.491-12,42.507,42.507,0,0,1,2.476-11.782A36.944,36.944,0,0,1,316-376.82c4.29-5.267,9.124-8.544,14.778-10.018a37.134,37.134,0,0,1,9.361-1.213,38.193,38.193,0,0,1,8.25.92,34.524,34.524,0,0,1,9.706,3.74,37.615,37.615,0,0,1,8.15,6.37c.38.388.787.771,1.18,1.141a14.378,14.378,0,0,1,3.162,3.755,4.528,4.528,0,0,0,4.217,2.742h.009a4.423,4.423,0,0,0,4.153-2.635,6.872,6.872,0,0,1,1.17-1.685c2.384-2.538,5.042-4.87,7.388-6.928a22.945,22.945,0,0,1,5.382-3.55,41.87,41.87,0,0,1,8.071-2.878,36.02,36.02,0,0,1,8.406-1.008,35.958,35.958,0,0,1,4.6.3,27.632,27.632,0,0,1,10.623,3.285,32.88,32.88,0,0,1,9.584,8.326,37.662,37.662,0,0,1,5.842,11.138,38.86,38.86,0,0,1,2.195,14.317,31.034,31.034,0,0,1-4.149,13.95c-.529.925-.761,1.348-.723,1.679s.38.687,1.06,1.384l.032.033a8.592,8.592,0,0,1,1.124,1.372c.261.422.411.485.477.485s.226-.066.518-.505a35.653,35.653,0,0,0,6.2-19.885,42.732,42.732,0,0,0-3.091-16.141c-3.534-8.738-8.628-15.031-15.572-19.24a33.1,33.1,0,0,0-17.673-4.812,51.528,51.528,0,0,0-12.15,1.581c-9.805,2.365-16.777,9.118-22.3,15.411l-.013.014c-.412.468-.684.778-1.057.778-.351,0-.664-.285-1.056-.745-4.392-5.143-8.164-8.557-12.229-11.068A39.718,39.718,0,0,0,340.412-392.278Z" transform="translate(-302.76 392.633)" fill="#fff"/><path d="M319.868-345.754c0-2.979-.007-5.962,0-8.945.014-3.112,1.558-4.63,4.709-4.634,5.294,0,10.593-.032,15.887.025,1.21.011,1.619-.312,1.6-1.569-.065-5.341-.036-10.682-.025-16.023,0-3.029,1.622-4.742,4.681-4.77q9.013-.076,18.026,0c3.252.025,4.918,1.748,4.932,5.007.022,5.251.036,10.5-.018,15.754-.011,1.2.327,1.622,1.583,1.6,5.295-.065,10.592-.032,15.89-.022,2.714,0,4.232,1.346,4.534,4.027a59.543,59.543,0,0,1,.1,7.2c-.029,4.182.212,8.371-.14,12.545a3.871,3.871,0,0,1-3.439,3.679,12.262,12.262,0,0,1-1.992.151c-5.072.011-10.147.036-15.219-.015-1.152-.011-1.551.341-1.54,1.526.054,5.294.029,10.593.022,15.891,0,3.04-1.493,4.71-4.519,4.745q-9.212.108-18.424,0c-2.976-.039-4.473-1.7-4.48-4.652-.011-5.294-.036-10.592.022-15.887.014-1.217-.341-1.633-1.58-1.619-5.029.054-10.061.025-15.09.018a13.347,13.347,0,0,1-1.859-.111A3.945,3.945,0,0,1,319.879-336c-.025-3.249,0-6.5,0-9.749Zm45.148-21.45c0-2.714-.043-5.427.021-8.141.025-1.106-.334-1.461-1.443-1.45-5.029.047-10.058.018-15.086.022-1.784,0-1.788,0-1.791,1.744,0,5.075.021,10.147-.011,15.219-.021,3.3-1.59,4.9-4.863,5.108-.442.025-.89.014-1.332.014-4.72,0-9.437.032-14.153-.022-1.231-.014-1.619.42-1.608,1.626q.07,7.613,0,15.219c-.015,1.17.377,1.536,1.543,1.522,5.115-.05,10.234-.025,15.352-.018,3.51,0,5.1,1.608,5.111,5.154.011,4.982.036,9.968-.018,14.95-.015,1.2.305,1.651,1.565,1.637q7.607-.091,15.219,0c1.177.011,1.529-.388,1.515-1.547-.05-5.072-.025-10.144-.018-15.219,0-3.564,1.64-5.19,5.248-5.2,5.072-.007,10.147-.015,15.219.011.951,0,1.479-.161,1.468-1.3q-.064-7.742,0-15.485c.011-1.113-.481-1.346-1.454-1.335-3.2.032-6.407.021-9.613.007-2.265-.011-4.544.079-6.8-.111-2.682-.229-4.038-1.845-4.063-4.523C365-361.953,365.019-364.576,365.016-367.2Z" transform="translate(-258.355 419.523)" fill="#fff"/><path d="M355.734-381.956c2.909,0,5.944.011,9.021.033,3.374.026,5.165,1.843,5.18,5.256.021,5.061.037,10.447-.018,15.758a1.53,1.53,0,0,0,.256,1.094,1.481,1.481,0,0,0,1.073.258c2.19-.027,4.543-.039,7.405-.039,1.859,0,3.749.005,5.577.01l2.913.007a4.886,4.886,0,0,1,3.337,1.073,4.8,4.8,0,0,1,1.445,3.177,41.324,41.324,0,0,1,.134,5.52c-.012.562-.024,1.144-.028,1.714-.009,1.3.009,2.631.026,3.914.038,2.835.076,5.767-.167,8.65a4.105,4.105,0,0,1-3.646,3.9,12.56,12.56,0,0,1-2.034.155l-2.461.006c-1.894,0-3.852.01-5.777.01-2.682,0-4.9-.01-6.983-.03h-.048a1.367,1.367,0,0,0-.99.253,1.428,1.428,0,0,0-.25,1.021c.044,4.324.035,8.722.027,12.976q0,1.459-.005,2.917c0,3.231-1.652,4.958-4.766,4.995s-6.216.055-9.223.055c-3.1,0-6.2-.02-9.208-.058a4.745,4.745,0,0,1-3.531-1.312,5.061,5.061,0,0,1-1.2-3.589q0-1.2-.005-2.4c-.011-4.422-.022-9,.027-13.492a1.534,1.534,0,0,0-.259-1.1,1.475,1.475,0,0,0-1.067-.262c-2.043.022-4.245.032-6.93.032-1.68,0-3.388,0-5.04-.008l-3.123-.006a13.569,13.569,0,0,1-1.9-.114,4.575,4.575,0,0,1-2.847-1.424,4.452,4.452,0,0,1-1.027-3c-.017-2.231-.013-4.5-.008-6.692q0-1.4,0-2.81h-.007v-.25q0-1.287,0-2.575c0-2.088,0-4.247,0-6.371a4.977,4.977,0,0,1,1.253-3.66,5.113,5.113,0,0,1,3.706-1.223l3.548-.005c1.512,0,3.075-.005,4.613-.005,3.038,0,5.493.011,7.729.035h.054a1.467,1.467,0,0,0,1.048-.256,1.472,1.472,0,0,0,.25-1.06c-.054-4.471-.043-9.017-.031-13.413q0-1.307.006-2.614a5.1,5.1,0,0,1,1.265-3.684,4.965,4.965,0,0,1,3.663-1.336C349.642-381.944,352.673-381.956,355.734-381.956Zm15.441,22.9a1.8,1.8,0,0,1-1.357-.406,1.913,1.913,0,0,1-.4-1.451c.054-5.307.039-10.691.018-15.751-.014-3.134-1.59-4.734-4.684-4.758-3.076-.022-6.11-.033-9.017-.033-3.059,0-6.089.012-9,.037-2.9.027-4.429,1.59-4.433,4.521q0,1.307-.006,2.614c-.011,4.394-.023,8.938.031,13.406a1.884,1.884,0,0,1-.394,1.417,1.909,1.909,0,0,1-1.463.4c-2.234-.024-4.688-.035-7.724-.035-1.537,0-3.1,0-4.612.005l-3.548.005A4.644,4.644,0,0,0,321.225-358a4.448,4.448,0,0,0-1.1,3.306c-.008,2.123-.006,4.281,0,6.368q0,1.163,0,2.325h.007v.25q0,1.531,0,3.061c0,2.192-.009,4.458.008,6.687a3.713,3.713,0,0,0,3.449,3.929,13.12,13.12,0,0,0,1.823.108l3.123.006c1.651,0,3.359.008,5.039.008,2.683,0,4.883-.01,6.924-.032h.064a1.807,1.807,0,0,1,1.365.411,1.92,1.92,0,0,1,.4,1.462c-.049,4.493-.038,9.064-.027,13.485q0,1.2.005,2.4c.007,2.884,1.431,4.365,4.233,4.4,3,.039,6.1.058,9.2.058,3,0,6.106-.018,9.217-.055,2.831-.033,4.269-1.546,4.272-4.5q0-1.459.005-2.917c.009-4.252.017-8.649-.027-12.97a1.827,1.827,0,0,1,.394-1.378,1.786,1.786,0,0,1,1.345-.4h.053c2.081.021,4.3.03,6.979.03,1.925,0,3.883-.005,5.776-.01l2.461-.006a12.057,12.057,0,0,0,1.952-.148,3.634,3.634,0,0,0,3.23-3.453c.241-2.859.2-5.778.165-8.6-.017-1.286-.035-2.616-.026-3.925,0-.574.016-1.157.028-1.72a40.941,40.941,0,0,0-.13-5.454c-.288-2.557-1.689-3.8-4.285-3.806l-2.913-.007c-1.827-.005-3.717-.01-5.575-.01-2.86,0-5.211.012-7.4.039Zm-7.533-17.989a1.689,1.689,0,0,1,1.283.388,1.728,1.728,0,0,1,.362,1.319c-.046,1.933-.037,3.9-.028,5.8,0,.764.007,1.554.007,2.331,0,.879,0,1.772,0,2.636,0,1.717-.007,3.493.013,5.241.024,2.585,1.35,4.064,3.835,4.276,1.277.108,2.532.122,3.591.122.463,0,.934,0,1.39-.006s.927-.007,1.391-.007h.406c1.509.007,3.264.014,4.993.014,1.7,0,3.21-.007,4.616-.021h.066a1.738,1.738,0,0,1,1.274.378,1.608,1.608,0,0,1,.366,1.21c-.043,5.136-.043,10.344,0,15.48a1.573,1.573,0,0,1-.357,1.183,1.774,1.774,0,0,1-1.332.372h-.03c-2.4-.012-4.938-.018-7.99-.018-2.384,0-4.808,0-7.153.007h-.076a5.2,5.2,0,0,0-3.8,1.192,5.069,5.069,0,0,0-1.2,3.755q0,1.456-.005,2.912c-.008,4.033-.017,8.2.023,12.3a1.855,1.855,0,0,1-.391,1.4,1.753,1.753,0,0,1-1.326.4h-.051c-2.666-.026-5.261-.04-7.711-.04-2.572,0-5.1.015-7.5.044h-.059a1.792,1.792,0,0,1-1.356-.411,1.946,1.946,0,0,1-.4-1.479c.045-4.215.034-8.5.023-12.649q0-1.149-.006-2.3a5.1,5.1,0,0,0-1.169-3.73,4.989,4.989,0,0,0-3.692-1.175l-2.935-.005c-1.705,0-3.469-.007-5.2-.007-2.8,0-5.088.01-7.211.03h-.068a1.771,1.771,0,0,1-1.338-.4,1.814,1.814,0,0,1-.39-1.373c.047-5.045.047-10.164,0-15.214a1.93,1.93,0,0,1,.418-1.456,1.9,1.9,0,0,1,1.443-.422c1.867.021,3.919.031,6.457.031,1.281,0,2.585,0,3.845,0s2.565,0,3.848,0l.613,0c.195,0,.451,0,.7-.016a5.048,5.048,0,0,0,3.485-1.318,4.95,4.95,0,0,0,1.143-3.542c.022-3.374.018-6.806.014-10.125,0-1.669,0-3.395,0-5.093,0-.94,0-1.411.3-1.7s.779-.29,1.738-.29q2.26,0,4.523,0l3.582,0c2.811,0,4.963-.008,6.979-.027Zm9.06,22.616c-1.07,0-2.338-.015-3.634-.124a4.609,4.609,0,0,1-3.194-1.427,4.969,4.969,0,0,1-1.1-3.342c-.019-1.75-.016-3.528-.013-5.247,0-.863,0-1.756,0-2.634,0-.776,0-1.566-.007-2.329-.009-1.906-.018-3.878.029-5.818a1.329,1.329,0,0,0-.219-.957,1.288,1.288,0,0,0-.926-.237H363.6c-2.018.019-4.172.027-6.984.027l-3.582,0q-2.261,0-4.522,0c-.771,0-1.237,0-1.389.148s-.151.6-.152,1.346c0,1.7,0,3.423,0,5.092,0,3.32.008,6.752-.014,10.129a5.415,5.415,0,0,1-1.282,3.884,5.515,5.515,0,0,1-3.816,1.472c-.268.015-.533.017-.735.017l-.613,0c-1.283,0-2.586,0-3.847,0s-2.564,0-3.846,0c-2.54,0-4.593-.01-6.463-.031a1.479,1.479,0,0,0-1.082.274,1.531,1.531,0,0,0-.273,1.1c.047,5.053.047,10.175,0,15.224a1.416,1.416,0,0,0,.246,1.016,1.443,1.443,0,0,0,1.044.253c2.126-.021,4.419-.03,7.217-.03,1.735,0,3.5,0,5.2.007l2.935.005c3.65,0,5.354,1.721,5.361,5.4q0,1.148.006,2.3c.011,4.148.022,8.438-.023,12.656a1.565,1.565,0,0,0,.259,1.122,1.446,1.446,0,0,0,1.053.262c2.408-.029,4.935-.044,7.508-.044,2.452,0,5.048.013,7.716.04h.046a1.349,1.349,0,0,0,.97-.252,1.442,1.442,0,0,0,.247-1.042c-.041-4.1-.032-8.276-.023-12.311q0-1.456.005-2.912c0-3.709,1.75-5.44,5.5-5.447h.076c2.344,0,4.769-.007,7.153-.007,3.052,0,5.592.006,7.992.018h.027c.536,0,.819-.065.977-.224a1.154,1.154,0,0,0,.213-.826c-.043-5.139-.043-10.35,0-15.489a1.188,1.188,0,0,0-.222-.853,1.276,1.276,0,0,0-.919-.23h-.06c-1.407.014-2.919.021-4.621.021-1.73,0-3.486-.007-5-.014h-.4c-.462,0-.932,0-1.388.006S373.167-354.429,372.7-354.429Z" transform="translate(-258.355 419.523)" fill="#fff"/></g></g></svg>