<svg xmlns="http://www.w3.org/2000/svg" xmlns:xlink="http://www.w3.org/1999/xlink" width="426" height="352" viewBox="0 0 426 352"><defs><linearGradient id="a" x2="0.979" y2="1" gradientUnits="objectBoundingBox"><stop offset="0" stop-color="#efefef" stop-opacity="0.8"/><stop offset="1" stop-color="#efefef" stop-opacity="0.102"/></linearGradient></defs><g transform="translate(-436 -1500)"><rect width="426" height="352" rx="20" transform="translate(436 1500)" fill="url(#a)"/><path d="M20,1.5A18.5,18.5,0,0,0,1.5,20V332A18.5,18.5,0,0,0,20,350.5H406A18.5,18.5,0,0,0,424.5,332V20A18.5,18.5,0,0,0,406,1.5H20M20,0H406a20,20,0,0,1,20,20V332a20,20,0,0,1-20,20H20A20,20,0,0,1,0,332V20A20,20,0,0,1,20,0Z" transform="translate(436 1500)" fill="#fff"/></g></svg>