<svg xmlns="http://www.w3.org/2000/svg" xmlns:xlink="http://www.w3.org/1999/xlink" width="198.732" height="200" viewBox="0 0 198.732 200"><defs><linearGradient id="a" x1="0.5" x2="0.5" y2="1" gradientUnits="objectBoundingBox"><stop offset="0" stop-color="#efefef" stop-opacity="0.6"/><stop offset="1" stop-color="#efefef" stop-opacity="0.102"/></linearGradient></defs><g transform="translate(46.693)"><ellipse cx="99.366" cy="100" rx="99.366" ry="100" transform="translate(-46.693)" fill="url(#a)"/><path d="M99.366,4A95.479,95.479,0,0,0,80.147,5.949,94.489,94.489,0,0,0,46.059,20.386,96,96,0,0,0,5.939,80.644a97.607,97.607,0,0,0,0,38.713,95.895,95.895,0,0,0,56.317,69.1,94.4,94.4,0,0,0,17.892,5.589,95.712,95.712,0,0,0,38.438,0,94.488,94.488,0,0,0,34.089-14.437,96,96,0,0,0,40.12-60.257,97.607,97.607,0,0,0,0-38.713,95.895,95.895,0,0,0-56.316-69.1,94.4,94.4,0,0,0-17.892-5.589A95.479,95.479,0,0,0,99.366,4m0-4c54.878,0,99.366,44.772,99.366,100S154.245,200,99.366,200,0,155.228,0,100,44.488,0,99.366,0Z" transform="translate(-46.693)" fill="#fff"/><g transform="translate(-19.551 44.494)"><path d="M221.485-282.247H156.612c-1.889,0-1.9,0-1.9-1.953q0-26.293.01-52.589c.007-3.59-1.081-6.975-1.733-10.439-.981-5.213-2.079-10.4-3.167-15.593-.228-1.086-.059-1.577,1.174-1.828q30-6.122,59.97-12.341,25.334-5.233,50.661-10.47c5.78-1.194,11.571-2.35,17.341-3.6,1.16-.254,1.519.118,1.73,1.166q3.325,16.552,6.7,33.09,2.88,14.2,5.77,28.393c.39,1.9.4,1.9-1.444,2.3-3.526.766-3.526.766-3.526,4.339q0,18.85,0,37.7c0,1.825,0,1.832-1.848,1.832Zm-.031-3.471H282.73c2.054,0,2.058,0,2.058-2.068V-342.97c0-.216-.017-.435,0-.648.086-.975-.283-1.48-1.316-1.382-.425.042-.853.007-1.281.007q-57.039,0-114.074.014c-2.818,0-5.639-.018-8.463.115-1.485.07-1.506.53-1.506,1.637q.031,27.787.014,55.573c0,1.933,0,1.936,1.889,1.936Zm44.77-62.7c6,0,11.993-.035,17.987.024,1.243.014,1.43-.39,1.2-1.508q-3.693-17.926-7.3-35.872c-.273-1.354-.794-1.515-2.01-1.257q-15.762,3.332-31.547,6.564-33.316,6.884-66.635,13.747-11.442,2.361-22.894,4.676c-1.057.213-1.509.519-1.233,1.745.8,3.576,1.505,7.173,2.179,10.777a1.154,1.154,0,0,0,1.519,1.086c1.057-.16.529-.943.442-1.414-.57-3.054-1.167-6.1-1.83-9.133-.2-.94.027-1.33.96-1.518,4.783-.961,9.555-1.971,14.334-2.956.328-.066.791-.219.967.094a4.621,4.621,0,0,1,.594,2.6c-.059.7-.842.623-1.354.732-3.429.738-6.865,1.466-10.3,2.145-1.008.2-1.488.481-1.167,1.7a55.794,55.794,0,0,1,1.271,6.205c.19,1.281.77,1.588,1.965,1.584q15.612-.057,31.22.007c1.24.007,1.685-.38,1.892-1.6a25.488,25.488,0,0,1,34.031-19.52c8.871,3.43,14.161,9.966,16.212,19.245.4,1.825.338,1.842,2.155,1.842Q257.553-348.421,266.224-348.423Zm-51.724.007a1.017,1.017,0,0,0-.135-.313c-2.393-2.458-1.765-7.361,1.167-9.565,1.229-.923,1.678-1.744,1.115-3.175-.152-.379-.421-1.013.117-1.3a4.052,4.052,0,0,1,2.445-.62c.791.125.653,1.048.739,1.63a1.561,1.561,0,0,0,1.7,1.511,10.42,10.42,0,0,1,3.277.554c.318.121.8.163.839.5a4.988,4.988,0,0,1-.843,2.525c-.276.613-.808.268-1.243.16-2-.491-3.978-.654-5.822.543-2,1.292-2.262,4.318-.411,5.216a23.83,23.83,0,0,0,9.382,2.441c5.124.216,10.266.032,15.4.08,1.126.01,1.357-.289,1.136-1.417a22.239,22.239,0,0,0-26.858-17.466c-8.653,2.061-15.484,9.262-16.8,17.622-.166,1.052.121,1.264,1.081,1.257,4.323-.038,8.647-.017,12.97-.021C214-348.253,214.272-348.162,214.5-348.416Z" transform="translate(-149.74 391.141)" fill="#fff"/><path d="M286.356-282H156.612c-1.014,0-1.523,0-1.835-.321s-.31-.842-.31-1.882q0-7.022,0-14.045c0-12.633-.005-25.7.012-38.544a33.686,33.686,0,0,0-1.1-7.441c-.218-.964-.442-1.962-.629-2.951-.9-4.779-1.914-9.618-2.9-14.3l-.27-1.289a1.918,1.918,0,0,1,.1-1.454,1.839,1.839,0,0,1,1.27-.67c17.765-3.626,35.819-7.354,53.279-10.959l6.691-1.382,28.225-5.833,22.436-4.637c1.648-.34,3.324-.683,4.945-1.015,4.066-.832,8.27-1.692,12.394-2.588a3.114,3.114,0,0,1,.662-.083c.946,0,1.216.694,1.367,1.444,1.987,9.888,4.029,19.936,6,29.653l.7,3.436c1.923,9.481,3.865,19.034,5.77,28.392l.007.032c.2,1,.308,1.5.073,1.871s-.729.478-1.711.691c-1.707.371-2.562.557-2.947,1.031s-.385,1.339-.385,3.064c0,12.355,0,25.13,0,37.7,0,.981,0,1.474-.306,1.778S287.345-282,286.356-282Zm-6.774-108.894a2.634,2.634,0,0,0-.555.071c-4.128.9-8.333,1.757-12.4,2.59-1.621.332-3.3.675-4.944,1.015l-22.436,4.637-28.225,5.833-6.691,1.381c-17.46,3.605-35.514,7.333-53.28,10.959a1.444,1.444,0,0,0-.952.454,1.466,1.466,0,0,0-.027,1.077l.27,1.289c.982,4.683,2,9.525,2.9,14.309.185.981.409,1.974.625,2.934a34.062,34.062,0,0,1,1.113,7.552c-.018,12.847-.015,25.91-.012,38.543q0,7.023,0,14.045c0,.848,0,1.36.169,1.534s.659.17,1.477.17H286.356c.8,0,1.279,0,1.439-.159s.158-.634.158-1.423c0-12.566,0-25.342,0-37.7,0-1.843,0-2.768.5-3.379s1.408-.809,3.226-1.2c.8-.173,1.274-.277,1.4-.472s.026-.689-.141-1.5l-.007-.032c-1.906-9.359-3.847-18.912-5.77-28.393l-.7-3.436c-1.975-9.717-4.017-19.765-6-29.654C280.28-390.735,280.033-390.891,279.581-390.891Zm3.148,105.423H160.051c-1.012,0-1.519,0-1.83-.319s-.308-.835-.308-1.868q0-5.566,0-11.132c0-14.566,0-29.627-.014-44.441,0-1.186.078-1.808,1.744-1.887,2.281-.107,4.561-.116,6.7-.116h1.774c24.025-.013,47.89-.015,68.066-.015h46.008c.137,0,.274,0,.407.007s.264.007.393.007c.176,0,.321-.006.456-.019.092-.009.181-.013.264-.013a1.314,1.314,0,0,1,1.015.375,1.622,1.622,0,0,1,.309,1.291,3.815,3.815,0,0,0,0,.4c0,.075,0,.149,0,.223v55.183c0,1.1,0,1.652-.331,1.985S283.825-285.468,282.73-285.468ZM166.343-344.73c-2.134,0-4.408.009-6.678.115-.631.03-.976.131-1.119.327a1.988,1.988,0,0,0-.148,1.06c.017,14.814.015,29.875.014,44.441q0,5.566,0,11.132c0,.841,0,1.348.166,1.518s.656.168,1.473.168H282.73c.9,0,1.437,0,1.622-.186s.186-.731.186-1.632V-342.97c0-.07,0-.14,0-.21a4.239,4.239,0,0,1,0-.458,1.2,1.2,0,0,0-.18-.911.836.836,0,0,0-.647-.213c-.068,0-.14,0-.216.011-.15.015-.311.022-.5.022-.136,0-.273,0-.406-.007s-.264-.007-.395-.007H236.183c-20.176,0-44.04,0-68.066.015Zm66.491-3.217c-2.358,0-4.269-.034-6.014-.108a23.971,23.971,0,0,1-9.481-2.466,2.526,2.526,0,0,1-1.383-2.208,3.892,3.892,0,0,1,1.767-3.442,5.924,5.924,0,0,1,3.329-.953,11.241,11.241,0,0,1,2.689.377c.093.023.187.055.277.085a1.508,1.508,0,0,0,.422.1c.083,0,.171-.016.257-.207s.185-.381.279-.564a3.287,3.287,0,0,0,.542-1.832c-.01-.1-.238-.161-.421-.214-.086-.025-.176-.051-.258-.082a10.239,10.239,0,0,0-3.2-.538,1.809,1.809,0,0,1-1.937-1.723c-.019-.129-.028-.263-.037-.4-.037-.587-.081-.951-.494-1.016a2.092,2.092,0,0,0-.328-.025,4.454,4.454,0,0,0-1.96.619c-.278.147-.223.439-.014.959l.011.026c.648,1.647-.01,2.577-1.2,3.468a6.74,6.74,0,0,0-2.516,4.851,5.565,5.565,0,0,0,1.378,4.34.738.738,0,0,1,.159.311c.009.03.018.059.026.078l.062.146-.106.118a.785.785,0,0,1-.623.263c-.059,0-.114,0-.167-.007s-.087-.006-.125-.006h-1.1q-2.7,0-5.4,0c-1.784,0-4.132,0-6.483.024h-.047a1.426,1.426,0,0,1-1.122-.335,1.443,1.443,0,0,1-.161-1.212,20.294,20.294,0,0,1,1.989-6.065,22.329,22.329,0,0,1,3.728-5.241,23.214,23.214,0,0,1,5.116-4.045,22.618,22.618,0,0,1,6.159-2.475,22.175,22.175,0,0,1,5.132-.605,22.449,22.449,0,0,1,14.158,5.091,22.539,22.539,0,0,1,5.021,5.774,22.466,22.466,0,0,1,2.851,7.4,1.647,1.647,0,0,1-.12,1.348,1.528,1.528,0,0,1-1.206.367h-.057c-.607-.006-1.24-.009-1.936-.009-1.242,0-2.506.009-3.728.018S234.078-347.947,232.834-347.947Zm-11.782-8.678a5.439,5.439,0,0,0-3.057.873,3.431,3.431,0,0,0-1.54,2.992,2.04,2.04,0,0,0,1.1,1.789,23.473,23.473,0,0,0,9.283,2.416c1.738.073,3.642.107,5.993.107,1.242,0,2.505-.009,3.727-.018s2.488-.018,3.732-.018c.7,0,1.333,0,1.941.009h.053c.456,0,.716-.059.82-.184s.115-.43.016-.935a22.023,22.023,0,0,0-21.539-17.862,21.675,21.675,0,0,0-5.016.592c-8.483,2.021-15.314,9.183-16.614,17.418-.067.428-.052.692.048.809s.323.16.742.16h.043c2.352-.021,4.7-.024,6.487-.024q2.7,0,5.4,0h1.1c.054,0,.107,0,.158.007s.091.006.134.006a.409.409,0,0,0,.143-.02.22.22,0,0,0-.023-.052,6.06,6.06,0,0,1-1.515-4.724,7.246,7.246,0,0,1,2.714-5.212c1.251-.939,1.512-1.667,1.033-2.884l-.01-.024c-.157-.39-.482-1.2.243-1.587a4.908,4.908,0,0,1,2.2-.677,2.593,2.593,0,0,1,.406.031c.83.131.881.942.915,1.478.008.131.016.255.032.362a1.319,1.319,0,0,0,1.468,1.3,10.66,10.66,0,0,1,3.354.57c.063.024.138.046.218.069.311.09.736.213.78.644a3.712,3.712,0,0,1-.6,2.113c-.1.186-.187.361-.268.54a.753.753,0,0,1-.713.5,1.844,1.844,0,0,1-.582-.128c-.084-.028-.164-.055-.237-.073A10.761,10.761,0,0,0,221.053-356.625Zm-26.429,8.48h-.032c-5.023-.025-10.134-.038-15.626-.038-4.926,0-10.026.01-15.592.03h-.021c-1.189,0-1.97-.3-2.192-1.8a55.649,55.649,0,0,0-1.265-6.178,1.676,1.676,0,0,1,.057-1.346,1.832,1.832,0,0,1,1.3-.659c3.626-.716,7.241-1.485,10.3-2.144.113-.024.235-.039.353-.054.538-.068.777-.132.8-.454a4.388,4.388,0,0,0-.563-2.462c-.012-.021-.035-.061-.168-.061a1.986,1.986,0,0,0-.4.063l-.133.029c-1.615.333-3.258.675-4.847,1.005-3.108.646-6.321,1.315-9.487,1.951a1.108,1.108,0,0,0-.738.357,1.18,1.18,0,0,0-.027.864c.587,2.687,1.169,5.591,1.832,9.14a2.373,2.373,0,0,0,.079.276,1.211,1.211,0,0,1,.028,1.021,1,1,0,0,1-.757.409,2.723,2.723,0,0,1-.406.033c-.774,0-1.231-.432-1.4-1.321-.6-3.185-1.319-6.956-2.177-10.768a1.756,1.756,0,0,1,.1-1.372,1.907,1.907,0,0,1,1.328-.672c7.548-1.514,15.136-3.076,22.893-4.676l3.481-.718c20.7-4.267,42.1-8.68,63.154-13.029l2.3-.475c9.589-1.981,19.5-4.029,29.245-6.088a4.114,4.114,0,0,1,.841-.108c.818,0,1.242.452,1.466,1.56,2.488,12.5,5.07,25.068,7.3,35.871a1.711,1.711,0,0,1-.12,1.412c-.231.283-.639.4-1.329.4-2.386-.024-5.012-.035-8.263-.035-1.619,0-3.266,0-4.859.005s-3.241.005-4.862.005c-5.684,0-11.561,0-17.342,0-.9,0-1.4,0-1.735-.267s-.431-.707-.623-1.587l-.04-.184c-2.062-9.328-7.465-15.743-16.058-19.066a24.22,24.22,0,0,0-8.761-1.628,25.155,25.155,0,0,0-24.933,20.956C196.5-348.618,195.953-348.145,194.623-348.145Zm-15.658-.538c5.492,0,10.6.012,15.628.038h.03c1.082,0,1.43-.3,1.615-1.39a25.368,25.368,0,0,1,3.229-8.819,25.371,25.371,0,0,1,5.856-6.739,26.084,26.084,0,0,1,16.341-5.815,24.717,24.717,0,0,1,8.941,1.661,25.935,25.935,0,0,1,10.765,7.5,27.685,27.685,0,0,1,5.6,11.922l.041.185c.161.74.25,1.147.445,1.3s.6.159,1.425.159c5.781,0,11.658,0,17.341,0,1.621,0,3.268,0,4.861-.005s3.24-.005,4.86-.005c3.253,0,5.88.011,8.269.035h.059c.474,0,.761-.07.878-.213s.127-.456.017-1c-2.226-10.8-4.809-23.377-7.3-35.873-.2-.974-.494-1.159-.976-1.159a3.653,3.653,0,0,0-.737.1c-9.742,2.06-19.658,4.108-29.248,6.089l-2.3.475c-21.05,4.349-42.455,8.762-63.154,13.029l-3.481.718c-7.758,1.6-15.346,3.163-22.9,4.677-.582.117-.874.249-1.007.454a1.331,1.331,0,0,0-.031.99c.859,3.82,1.585,7.6,2.181,10.786.141.757.464.912.905.912a2.264,2.264,0,0,0,.331-.027.58.58,0,0,0,.406-.177c.078-.127,0-.38-.077-.6a2.7,2.7,0,0,1-.1-.34c-.661-3.543-1.242-6.443-1.829-9.125a1.581,1.581,0,0,1,.1-1.244,1.516,1.516,0,0,1,1.058-.573c3.164-.636,6.377-1.3,9.484-1.95,1.589-.331,3.232-.672,4.849-1.006l.124-.027a2.377,2.377,0,0,1,.507-.075.641.641,0,0,1,.605.318,4.893,4.893,0,0,1,.625,2.748c-.064.758-.771.848-1.239.908-.113.014-.219.028-.312.047-3.059.659-6.677,1.429-10.307,2.145-.571.112-.854.238-.977.434a1.271,1.271,0,0,0,0,.953,56.151,56.151,0,0,1,1.276,6.233c.158,1.063.538,1.371,1.7,1.371h.019C168.938-348.673,174.038-348.683,178.965-348.683Z" transform="translate(-149.74 391.141)" fill="#fff"/><path d="M191.973-377.313c2.4,0,4.794.028,7.191-.01.946-.017,1.292.363,1.285,1.288-.021,4.411-.038,8.822.011,13.229.014,1.423-.884,1.278-1.8,1.306-.96.027-1.668-.062-1.647-1.33.048-3.212-.031-6.425.035-9.633.028-1.2-.3-1.655-1.575-1.627-3.551.08-7.108-.017-10.659.048-1.223.024-1.43-.552-1.409-1.561.017-.967-.007-1.779,1.378-1.73C187.176-377.254,189.576-377.313,191.973-377.313Z" transform="translate(-67.891 425.97)" fill="#fff"/><path d="M184.667-377.586l.124,0c.851.028,1.769.041,2.888.041.715,0,1.442-.005,2.146-.01s1.432-.01,2.149-.01,1.433,0,2.132,0,1.421,0,2.131,0c1.133,0,2.063-.006,2.925-.02h.064a1.478,1.478,0,0,1,1.113.361,1.57,1.57,0,0,1,.362,1.18c-.022,4.7-.036,8.945.011,13.224.015,1.533-.979,1.544-1.778,1.554-.087,0-.176,0-.264,0s-.173,0-.246,0a1.758,1.758,0,0,1-1.293-.384,1.605,1.605,0,0,1-.367-1.2c.022-1.5.017-3.026.012-4.5-.006-1.682-.012-3.422.023-5.133a1.541,1.541,0,0,0-.247-1.114,1.335,1.335,0,0,0-.971-.258h-.1c-1.029.023-2.116.033-3.523.033-.678,0-1.367,0-2.033,0s-1.355,0-2.031,0c-1.2,0-2.176.008-3.073.024h-.078a1.616,1.616,0,0,1-1.208-.39,1.918,1.918,0,0,1-.378-1.427v-.075C183.17-376.575,183.187-377.586,184.667-377.586Zm3.012.544c-1.125,0-2.048-.013-2.905-.042l-.107,0c-.948,0-1,.432-1.012,1.411v.076a1.466,1.466,0,0,0,.235,1.068,1.233,1.233,0,0,0,.919.239c.9-.017,1.88-.024,3.082-.024.678,0,1.367,0,2.033,0s1.355,0,2.031,0c1.4,0,2.486-.01,3.512-.033h.113a1.766,1.766,0,0,1,1.329.409,1.922,1.922,0,0,1,.389,1.475c-.035,1.7-.029,3.441-.023,5.12.005,1.478.011,3.006-.012,4.511a1.158,1.158,0,0,0,.223.845,1.278,1.278,0,0,0,.936.235c.068,0,.144,0,.231,0s.183,0,.273,0c.834-.01,1.294-.015,1.284-1.048-.047-4.283-.033-8.527-.011-13.233a1.149,1.149,0,0,0-.217-.825,1.1,1.1,0,0,0-.814-.212c-.865.014-1.8.02-2.933.02-.711,0-1.433,0-2.132,0s-1.421,0-2.13,0-1.442.005-2.145.01S188.4-377.042,187.679-377.042Z" transform="translate(-67.891 425.97)" fill="#fff"/><path d="M191.909-350.135c-2.394,0-4.791-.059-7.185.024-1.319.045-1.316-.722-1.319-1.641s.017-1.672,1.316-1.651c3.634.059,7.271-.01,10.9.038,1.054.014,1.43-.328,1.413-1.4-.052-3.205-.028-6.414-.01-9.62.007-1.42.18-1.5,1.831-1.547,1.109-.035,1.62.28,1.6,1.513-.062,4.276-.052,8.552-.007,12.828.014,1.123-.373,1.5-1.492,1.472C196.614-350.18,194.262-350.135,191.909-350.135Z" transform="translate(-67.886 454.862)" fill="#fff"/><path d="M184.618-349.859c-1.455,0-1.459-1-1.462-1.878v-.014a2.1,2.1,0,0,1,.372-1.532,1.537,1.537,0,0,1,1.142-.37h.056c1.08.017,2.231.025,3.733.025l1.949,0,1.95,0c1.286,0,2.326.006,3.273.018h.056a1.224,1.224,0,0,0,.883-.23,1.261,1.261,0,0,0,.221-.912c-.048-2.938-.031-5.927-.015-8.817l0-.808c0-.684.033-1.191.391-1.482a2.9,2.9,0,0,1,1.683-.314l.161,0a1.7,1.7,0,0,1,1.3.4,1.811,1.811,0,0,1,.4,1.364c-.056,3.851-.058,7.926-.007,12.822a1.766,1.766,0,0,1-.386,1.339,1.746,1.746,0,0,1-1.363.385c-.871-.024-1.817-.036-2.976-.036-.677,0-1.367,0-2.033.007s-1.358.007-2.037.007c-.7,0-1.415-.005-2.1-.01s-1.4-.01-2.1-.01c-1.154,0-2.1.014-2.97.044Zm.052-3.294a1.087,1.087,0,0,0-.788.223c-.217.218-.231.626-.227,1.177v.015c0,.957.044,1.38.962,1.38l.1,0c.878-.03,1.827-.045,2.987-.045.7,0,1.416.005,2.106.01s1.4.01,2.1.01c.678,0,1.367,0,2.034-.007s1.357-.007,2.036-.007c1.164,0,2.114.011,2.99.036l.115,0a1.207,1.207,0,0,0,.879-.238,1.363,1.363,0,0,0,.241-.982c-.051-4.9-.049-8.979.007-12.835a1.4,1.4,0,0,0-.257-1.006,1.291,1.291,0,0,0-.941-.256l-.147,0a2.9,2.9,0,0,0-1.382.2c-.17.138-.2.492-.207,1.1l0,.809c-.016,2.887-.033,5.873.015,8.806a1.667,1.667,0,0,1-.364,1.27,1.686,1.686,0,0,1-1.3.379c-.944-.013-1.982-.018-3.267-.018l-1.948,0-1.95,0c-1.5,0-2.658-.008-3.741-.025Z" transform="translate(-67.886 454.862)" fill="#fff"/><path d="M198.609-373.6c-.87.152-.846-.553-.95-1.054-.663-3.136-1.33-6.272-1.92-9.419-.2-1.088-.508-1.53-1.762-1.237-3.5.808-7.036,1.42-10.542,2.2-1.009.225-1.392-.041-1.589-1.005-.432-2.114-.452-2.1,1.623-2.5,4.359-.856,8.722-1.7,13.07-2.632,1.129-.242,1.606-.01,1.831,1.164.808,4.238,1.717,8.459,2.573,12.69C201.231-373.989,200.716-373.6,198.609-373.6Z" transform="translate(-72.282 395.564)" fill="#fff"/><path d="M198.386-373.332c-.761,0-.871-.672-.936-1.073-.012-.071-.023-.138-.036-.2l-.086-.406c-.624-2.952-1.27-6-1.835-9.018-.163-.87-.357-1.121-.865-1.121a2.652,2.652,0,0,0-.594.082c-1.888.437-3.82.822-5.687,1.194-1.595.318-3.244.647-4.857,1.006a2.93,2.93,0,0,1-.631.081c-.877,0-1.128-.647-1.257-1.28l-.014-.07c-.222-1.084-.333-1.628-.073-2.018s.8-.494,1.87-.7l1.49-.292c3.81-.747,7.75-1.52,11.613-2.346a3.546,3.546,0,0,1,.731-.091c.987,0,1.26.734,1.4,1.453.532,2.788,1.116,5.615,1.682,8.35.294,1.421.6,2.891.891,4.338a1.715,1.715,0,0,1-.18,1.5c-.35.428-1.017.6-2.379.6A1.534,1.534,0,0,1,198.386-373.332Zm-3.758-12.319c.988,0,1.212.755,1.357,1.529.564,3.008,1.209,6.057,1.833,9.006l.086.407c.015.074.028.149.04.223.083.507.151.654.443.654a1.06,1.06,0,0,0,.18-.017l.021,0h.022c1.174,0,1.776-.124,2.013-.414.165-.2.188-.535.077-1.082-.293-1.446-.6-2.915-.89-4.336-.566-2.736-1.151-5.566-1.683-8.357-.168-.88-.448-1.047-.906-1.047a3.067,3.067,0,0,0-.626.08c-3.868.826-7.809,1.6-11.621,2.347l-1.49.292c-.878.172-1.407.276-1.551.492s-.035.753.147,1.641l.014.07c.152.744.378.88.767.88a2.45,2.45,0,0,0,.523-.069c1.619-.36,3.271-.69,4.868-1.009,1.864-.372,3.791-.756,5.672-1.191A3.131,3.131,0,0,1,194.628-385.65Z" transform="translate(-72.282 395.564)" fill="#fff"/><path d="M214.2-351.017a25.5,25.5,0,0,1-25.518,25.346A25.813,25.813,0,0,1,163.15-351.39a25.486,25.486,0,0,1,25.615-25.353A25.6,25.6,0,0,1,214.2-351.017Zm-3.478-.186a22.035,22.035,0,0,0-21.978-22.265,22.053,22.053,0,0,0-22.189,22.051,21.954,21.954,0,0,0,21.926,22.282A21.885,21.885,0,0,0,210.723-351.2Z" transform="translate(-118.252 428.322)" fill="#fff"/><path d="M188.721-325.422h-.038a25.16,25.16,0,0,1-9.989-2.074,26.066,26.066,0,0,1-8.206-5.606,26.186,26.186,0,0,1-5.555-8.258,25.437,25.437,0,0,1-2.032-10.032,25.33,25.33,0,0,1,2.033-9.917,25.756,25.756,0,0,1,5.5-8.143,25.68,25.68,0,0,1,8.145-5.515,25.3,25.3,0,0,1,9.967-2.029h.222a25.862,25.862,0,0,1,10.027,2.093,25.721,25.721,0,0,1,8.167,5.561,25.711,25.711,0,0,1,5.491,8.229,25.943,25.943,0,0,1,2,10.094,25.274,25.274,0,0,1-2.042,9.947,25.656,25.656,0,0,1-5.529,8.137,25.759,25.759,0,0,1-8.176,5.494A25.519,25.519,0,0,1,188.721-325.422Zm-.175-51.073a25.193,25.193,0,0,0-25.145,25.1,25.266,25.266,0,0,0,7.441,17.936,25.057,25.057,0,0,0,17.841,7.532h.038a25.223,25.223,0,0,0,25.23-25.1,25.484,25.484,0,0,0-25.188-25.475Zm.032,47.608h-.1a22.076,22.076,0,0,1-15.712-6.541,22.375,22.375,0,0,1-6.463-15.992,22.294,22.294,0,0,1,6.568-15.8,22.256,22.256,0,0,1,15.818-6.5h.053a22.144,22.144,0,0,1,8.7,1.775,22.045,22.045,0,0,1,7.069,4.816,22.253,22.253,0,0,1,4.743,7.15,22.657,22.657,0,0,1,1.72,8.775,22.263,22.263,0,0,1-6.506,15.861A22.324,22.324,0,0,1,188.578-328.886Zm.115-44.333a21.684,21.684,0,0,0-21.887,21.8,21.878,21.878,0,0,0,6.318,15.638,21.58,21.58,0,0,0,15.359,6.393h.092a21.658,21.658,0,0,0,21.9-21.819,21.928,21.928,0,0,0-6.319-15.573,21.552,21.552,0,0,0-15.41-6.442Z" transform="translate(-118.252 428.322)" fill="#fff"/><path d="M175.6-340.562c-1.074.2-1.337-.439-1.344-1.489-.014-2.532-.042-2.545-2.473-3.088a16.018,16.018,0,0,1-2.549-.86,1.2,1.2,0,0,1-.8-1.789c.636-1.713.58-1.731,2.249-1.012a10.663,10.663,0,0,0,5.26.888,4.144,4.144,0,0,0,3.8-2.949,4,4,0,0,0-1.827-4.2c-1.862-1.336-4.138-1.837-6.072-3.05-3.554-2.228-4.515-6.065-2.259-9.371a6.781,6.781,0,0,1,3.837-2.646,1.317,1.317,0,0,0,1.1-1.578c-.031-.428-.007-.857,0-1.285.021-1.572.159-1.658,1.685-1.662.978-.007,1.226.435,1.244,1.326.042,2.473.069,2.47,2.449,3.026a10.448,10.448,0,0,1,1.112.307c1.813.635,1.827.788,1.185,2.566-.38,1.057-.867,1.109-1.817.7a8.33,8.33,0,0,0-5.637-.577,3.1,3.1,0,0,0-2.4,2.414,3.156,3.156,0,0,0,1.223,3.305,11.945,11.945,0,0,0,2.915,1.606,23.825,23.825,0,0,1,3.482,1.637,7.037,7.037,0,0,1,3.62,7.247,6.693,6.693,0,0,1-4.963,5.8c-1.178.39-1.6.939-1.437,2.1a8.008,8.008,0,0,1,.007,1.154C177.152-340.656,177.062-340.566,175.6-340.562Z" transform="translate(-105.661 433.452)" fill="#fff"/><path d="M175.233-340.275c-1.218,0-1.226-1.289-1.229-1.775-.007-1.22-.021-1.82-.275-2.135s-.879-.46-2-.711a16.035,16.035,0,0,1-2.59-.873,1.439,1.439,0,0,1-.944-2.107l.057-.154c.362-.978.543-1.469,1.119-1.469a4.136,4.136,0,0,1,1.39.461l.016.007a10.552,10.552,0,0,0,4.227.91c.3,0,.609-.014.912-.042a3.915,3.915,0,0,0,3.584-2.764,3.748,3.748,0,0,0-1.731-3.933,16.424,16.424,0,0,0-3.221-1.655,19.876,19.876,0,0,1-2.839-1.387,7.356,7.356,0,0,1-3.463-4.631,6.531,6.531,0,0,1,1.13-5.093,7.014,7.014,0,0,1,3.973-2.745,1.078,1.078,0,0,0,.919-1.32c-.024-.325-.017-.648-.01-.961,0-.115,0-.23.006-.345.01-.769.04-1.3.355-1.6s.8-.31,1.58-.312h.023c1.266,0,1.456.755,1.471,1.572.02,1.185.04,1.769.288,2.075s.816.443,1.939.706l.029.007a10.516,10.516,0,0,1,1.139.315c.888.311,1.442.531,1.649.967s.035.958-.312,1.92c-.185.513-.486,1.1-1.182,1.1a2.528,2.528,0,0,1-.967-.254,9.228,9.228,0,0,0-3.618-.823,6.8,6.8,0,0,0-1.853.256,2.843,2.843,0,0,0-2.227,2.224,2.9,2.9,0,0,0,1.131,3.058,11.608,11.608,0,0,0,2.855,1.572l.047.019a23.841,23.841,0,0,1,3.471,1.636,7.878,7.878,0,0,1,3.059,3.168,7.618,7.618,0,0,1,.679,4.32,6.931,6.931,0,0,1-5.133,6.012c-1.092.362-1.412.822-1.269,1.824a4.939,4.939,0,0,1,.019.863c0,.108-.008.221-.009.329-.013.711-.035,1.159-.328,1.434-.272.255-.68.286-1.477.288A2.193,2.193,0,0,1,175.233-340.275ZM169.368-349c-.206,0-.307.217-.65,1.143l-.057.154c-.289.78-.121,1.151.665,1.471a15.6,15.6,0,0,0,2.51.848c1.274.284,1.913.427,2.283.885s.378,1.168.385,2.445c.007,1.064.284,1.278.729,1.278a1.726,1.726,0,0,0,.318-.033l.023,0h.023a2.22,2.22,0,0,0,1.159-.153c.131-.123.159-.445.17-1.076,0-.113.005-.229.01-.341a4.5,4.5,0,0,0-.014-.774c-.178-1.245.287-1.931,1.606-2.368a6.461,6.461,0,0,0,4.794-5.593,6.788,6.788,0,0,0-3.5-7.005,23.463,23.463,0,0,0-3.4-1.6l-.046-.019a12.084,12.084,0,0,1-2.975-1.641,3.4,3.4,0,0,1-1.314-3.552,3.35,3.35,0,0,1,2.581-2.605,7.3,7.3,0,0,1,1.99-.275,9.714,9.714,0,0,1,3.813.862,2.126,2.126,0,0,0,.772.214c.21,0,.456-.06.712-.773.284-.786.452-1.281.331-1.536-.113-.237-.529-.418-1.363-.71a10.088,10.088,0,0,0-1.086-.3l-.029-.007c-1.234-.288-1.854-.433-2.214-.878s-.379-1.138-.4-2.38c-.016-.838-.234-1.081-.972-1.081h-.02c-.64,0-1.07.014-1.236.173s-.192.537-.2,1.242c0,.116,0,.233-.006.35-.007.315-.013.613.009.914a1.553,1.553,0,0,1-1.277,1.836,6.529,6.529,0,0,0-3.7,2.546,6.044,6.044,0,0,0-1.054,4.709,6.864,6.864,0,0,0,3.239,4.309,19.5,19.5,0,0,0,2.768,1.35,16.8,16.8,0,0,1,3.317,1.709,4.234,4.234,0,0,1,1.923,4.467,4.408,4.408,0,0,1-4.022,3.135c-.317.029-.64.044-.957.044a11.2,11.2,0,0,1-4.425-.951l-.016-.007A4.35,4.35,0,0,0,169.368-349Z" transform="translate(-105.661 433.452)" fill="#fff"/><path d="M161.273-377.315c2.4,0,4.8.052,7.195-.017,1.3-.038,1.326.718,1.323,1.647s-.014,1.665-1.326,1.641c-3.6-.069-7.2.014-10.794-.045-1.109-.017-1.506.3-1.482,1.447.066,3.208-.035,6.424.048,9.637.035,1.368-.632,1.53-1.734,1.513-1.06-.01-1.8-.069-1.772-1.482.072-4.283.059-8.566,0-12.849-.017-1.223.47-1.541,1.6-1.509C156.645-377.27,158.959-377.315,161.273-377.315Z" transform="translate(-142.399 426.873)" fill="#fff"/><path d="M154.191-377.584l.15,0c.832.022,1.731.033,2.827.033.683,0,1.378,0,2.051-.008s1.369-.008,2.055-.008c.72,0,1.453,0,2.161.009s1.44.009,2.159.009c1.109,0,2.02-.011,2.867-.036h.1a1.487,1.487,0,0,1,1.1.362,2.114,2.114,0,0,1,.377,1.538c-.007.887-.014,1.89-1.514,1.89h-.067c-1.055-.02-2.176-.029-3.635-.029q-.979,0-1.958,0t-1.958,0c-1.273,0-2.3-.007-3.243-.022h-.08a1.276,1.276,0,0,0-.926.234,1.332,1.332,0,0,0-.221.959c.031,1.527.025,3.08.019,4.582-.007,1.657-.014,3.371.03,5.053a1.774,1.774,0,0,1-.387,1.352,1.963,1.963,0,0,1-1.456.419H154.5a2.253,2.253,0,0,1-1.634-.423,1.745,1.745,0,0,1-.384-1.313c.065-3.869.067-7.949,0-12.842a1.81,1.81,0,0,1,.4-1.361A1.724,1.724,0,0,1,154.191-377.584Zm2.977.535c-1.1,0-2-.01-2.841-.033l-.136,0a1.3,1.3,0,0,0-.953.254,1.379,1.379,0,0,0-.253,1c.063,4.9.062,8.983,0,12.857a1.327,1.327,0,0,0,.243.956c.236.243.68.266,1.282.271.684.011,1.037-.062,1.236-.267a1.356,1.356,0,0,0,.246-.99c-.044-1.69-.037-3.407-.03-5.068.006-1.5.012-3.049-.019-4.57a1.73,1.73,0,0,1,.364-1.319,1.775,1.775,0,0,1,1.372-.384c.937.015,1.964.022,3.235.022q.978,0,1.957,0t1.959,0c1.462,0,2.586.009,3.644.029h.058c.965,0,1.006-.4,1.014-1.393,0-.554-.013-.964-.231-1.182a1.111,1.111,0,0,0-.835-.214c-.852.025-1.768.036-2.882.036-.721,0-1.454,0-2.163-.009s-1.439-.009-2.158-.009c-.684,0-1.379,0-2.052.008S157.853-377.05,157.168-377.05Z" transform="translate(-142.399 426.873)" fill="#fff"/><path d="M161.274-350.142c-2.4,0-4.794-.034-7.191.018-1.016.021-1.347-.373-1.34-1.354.028-4.366.048-8.732-.01-13.1-.017-1.388.8-1.35,1.758-1.35s1.768-.017,1.741,1.364c-.073,3.126-.024,6.248-.021,9.375,0,1.8,0,1.8,1.855,1.8,3.423,0,6.849.052,10.272-.028,1.313-.028,1.457.618,1.457,1.658s-.145,1.7-1.461,1.644C165.985-350.207,163.626-350.142,161.274-350.142Z" transform="translate(-142.397 454.868)" fill="#fff"/><path d="M168.475-349.861l-.151,0c-.858-.034-1.788-.05-2.926-.05-.687,0-1.385.006-2.061.011s-1.376.011-2.063.011-1.378,0-2.05-.006-1.365-.006-2.048-.006c-1.2,0-2.186.009-3.088.029h-.079a1.527,1.527,0,0,1-1.147-.366,1.66,1.66,0,0,1-.369-1.241c.028-4.419.048-8.745-.01-13.093a1.634,1.634,0,0,1,.372-1.219,2.009,2.009,0,0,1,1.488-.384h.169a2.116,2.116,0,0,1,1.6.388,1.639,1.639,0,0,1,.367,1.231c-.053,2.275-.041,4.588-.03,6.824,0,.834.008,1.7.009,2.545,0,.774,0,1.24.157,1.392s.645.156,1.448.157c.968,0,1.954,0,2.906.008s1.938.008,2.906.008c1.74,0,3.155-.014,4.453-.044h.086c1.5,0,1.628.9,1.628,1.909a2.023,2.023,0,0,1-.4,1.518A1.577,1.577,0,0,1,168.475-349.861Zm-3.076-.553c1.145,0,2.081.016,2.945.05a1.25,1.25,0,0,0,.946-.229,1.689,1.689,0,0,0,.255-1.164c0-1.058-.163-1.41-1.128-1.41h-.075c-1.3.03-2.721.044-4.464.044-.97,0-1.955,0-2.908-.008s-1.937-.008-2.9-.008c-.993,0-1.491,0-1.8-.3s-.309-.785-.309-1.751c0-.848-.005-1.71-.009-2.543-.011-2.24-.023-4.556.03-6.837a1.193,1.193,0,0,0-.224-.87c-.238-.242-.712-.241-1.244-.238h-.171c-.527,0-.916.017-1.132.236a1.187,1.187,0,0,0-.228.861c.059,4.352.038,8.681.01,13.1a1.23,1.23,0,0,0,.224.885,1.16,1.16,0,0,0,.861.217c.905-.02,1.89-.029,3.1-.029.683,0,1.378,0,2.05.006s1.365.006,2.048.006,1.384-.006,2.059-.011S164.71-350.414,165.4-350.414Z" transform="translate(-142.397 454.868)" fill="#fff"/></g></g></svg>