<svg xmlns="http://www.w3.org/2000/svg" width="37.42" height="35" viewBox="0 0 37.42 35"><g transform="translate(0 0)"><path d="M673.365,335.955H654.333c-1.454-.542-1.822-1.071-1.827-2.649,0-1.263-.016-2.526,0-3.789.009-.583-.234-.838-.812-.829-.779.012-1.559-.021-2.338,0a3.982,3.982,0,0,1-4.22-2.573V313.375c.747-1.915,2.212-2.607,4.193-2.6q14.513.035,29.027,0a4.028,4.028,0,0,1,4.2,2.6v12.581c-.834,2.021-1.767,2.652-3.922,2.654-.779,0-1.559,0-2.338,0-1.073,0-1.1.029-1.1,1.069,0,1.209,0,2.419,0,3.628C675.188,334.883,674.82,335.413,673.365,335.955Zm-9.452-22.912q-4.513,0-9.027,0c-2.042,0-4.084-.011-6.125.013-.972.012-1.464.451-1.468,1.336q-.028,5.359,0,10.719a1.182,1.182,0,0,0,1.254,1.285c1.073.036,2.149.007,3.223.016.5,0,.743-.21.733-.725-.012-.645-.021-1.291.011-1.934a2,2,0,0,1,2.122-2.055q9.228-.02,18.456,0a2,2,0,0,1,2.093,2.084c.026.617.025,1.236.006,1.853-.016.547.22.786.766.778.913-.014,1.827.005,2.74,0,1.339-.012,1.718-.392,1.721-1.737q.008-4.8,0-9.591c0-1.751-.292-2.038-2.082-2.039Q671.126,313.04,663.912,313.043Zm-.057,10.845c-2.714,0-5.429.021-8.142-.013-.78-.01-1.027.265-1.016,1.034.037,2.606.029,5.213,0,7.82-.007.677.2.974.918.972q8.223-.024,16.446,0c.7,0,.938-.269.931-.959-.026-2.606-.008-5.213-.012-7.82,0-.984-.049-1.031-1.068-1.032Q667.886,323.883,663.855,323.888Z" transform="translate(-645.139 -300.955)" fill="#fff"/><path d="M706.278,249.919a43.1,43.1,0,0,1,4.628,4.349.961.961,0,0,1,.251.742c0,1.155-.015,2.311.006,3.466.016.886-.6.791-1.166.806-.579.015-1.112-.027-1.037-.835.02-.213-.011-.43,0-.644.033-.553-.235-.776-.773-.771-1.021.009-2.042-.013-3.063,0-.6.006-.877-.222-.855-.861.036-1.02-.016-2.042.016-3.062.02-.643-.2-.932-.874-.93q-6,.023-12.009,0c-.719,0-.928.316-.919.982.024,1.692.014,3.385,0,5.078-.007.934-.128,1.014-1.1,1.048-.717.025-1.176-.113-1.163-.993.035-2.5.01-5,.021-7.5a6.148,6.148,0,0,1,.126-.874Z" transform="translate(-681.278 -249.919)" fill="#fff"/></g></svg>