<svg xmlns="http://www.w3.org/2000/svg" width="38.433" height="35" viewBox="0 0 38.433 35"><g transform="translate(0 0)"><path d="M428.588,279.69a6.38,6.38,0,0,1-.445,1.659,5.675,5.675,0,0,1-4.671,3.521,5.821,5.821,0,0,1-6.526-4.939,3.057,3.057,0,0,1-.046-.526c0-.158-.062-.215-.206-.244q-1.594-.316-3.186-.643l-6.964-1.424c-1.157-.237-2.315-.47-3.472-.711a.258.258,0,0,0-.326.155,6.539,6.539,0,0,1-5.111,3.5,6.695,6.695,0,0,1-1.948-13.242,6.517,6.517,0,0,1,5.44,1.459c.158.129.24.118.382-.016q3.763-3.551,7.535-7.092,1.05-.987,2.106-1.965c.113-.1.107-.176.031-.295a5.671,5.671,0,0,1-.9-3.158,5.884,5.884,0,1,1,2.835,5.051.249.249,0,0,0-.377.054q-2.8,3-5.609,6-1.928,2.06-3.858,4.119a.281.281,0,0,0-.072.331,6.182,6.182,0,0,1,.335,1.744.238.238,0,0,0,.207.254q3.464.919,6.926,1.846,3.217.859,6.432,1.722c.166.045.224,0,.29-.147a5.665,5.665,0,0,1,4.638-3.448,5.829,5.829,0,0,1,6.532,5.048c.006.045.019.089.029.133Z" transform="translate(-390.155 -249.919)" fill="#fff"/></g></svg>